<svg id="Calque_1" data-name="Calque 1" xmlns="http://www.w3.org/2000/svg" viewBox="0 0 793.15 573.55"><defs><style>.cls-1{font-size:9px;}.cls-1,.cls-2,.cls-3,.cls-4,.cls-7,.cls-8{font-family:Purisa-Bold, Purisa;font-weight:700;}.cls-2{font-size:11px;}.cls-3,.cls-4{font-size:12px;}.cls-4{fill:#1d1d1b;}.cls-5,.cls-8{fill:#d61c32;}.cls-6{fill:#000;}.cls-7,.cls-8{font-size:10px;}</style></defs><title>Community_texts</title><text class="cls-1" transform="translate(292.27 198.18)">COMPUTING RESOURCES</text><text class="cls-2" transform="translate(218.57 107.63)">INFORMATION SYSTEM</text><text class="cls-3" transform="translate(181.26 269.34)">STEP</text><text class="cls-4" transform="translate(503.75 221.43)">STEP</text><text class="cls-4" transform="translate(435.77 22.98)">STEP</text><text class="cls-4" transform="translate(372.86 492.75)">STEP</text><text class="cls-3" transform="translate(0 19.95)">AN INSTITUTION FOO WANTS <tspan x="0" y="14.4">TO PROVIDE ITS MEMBERS </tspan><tspan x="0" y="28.8">WITH </tspan><tspan class="cls-5" x="46.11" y="28.8">CUSTOMIZABLE</tspan><tspan class="cls-5"><tspan x="0" y="43.2">COLLABORATIVE VIRTUAL </tspan><tspan x="0" y="57.6">ENVIRONMENT</tspan><tspan class="cls-6" x="101.05" y="57.6" xml:space="preserve"> THAT</tspan></tspan><tspan x="0" y="72">INTEGRATES SMOOTHLY</tspan><tspan x="0" y="86.4">WITH ITS </tspan><tspan class="cls-5" x="80.03" y="86.4">INFORMATION </tspan><tspan class="cls-5"><tspan x="0" y="100.8">SYSTEM AND COMPUTING</tspan><tspan x="0" y="115.2">RESOURCES</tspan></tspan></text><text class="cls-3" transform="translate(22.39 172.21)">JOHN:<tspan x="-15.55" y="14.4">PROFESSOR</tspan></text><text class="cls-3" transform="translate(194.02 513.34)">DOO: STUDENT OR<tspan x="26.36" y="14.4">COLLEAGUE</tspan></text><text class="cls-7" transform="translate(441.59 103.61)">SOFTWARE<tspan x="0" y="12">DATA</tspan><tspan x="0" y="24">RESOURCES</tspan><tspan x="0" y="36">URL</tspan></text><text class="cls-2" transform="translate(453.32 85.35)">CONFIGURATION</text><text class="cls-8" transform="translate(103.89 186.05)">CONFIGURES A CUSTOM <tspan x="0" y="12">VIRTUAL ENVIRONMENT</tspan><tspan class="cls-6" x="144.03" y="12"> </tspan><tspan class="cls-6"><tspan x="0" y="24">TAILORED HIS NEEDS</tspan><tspan x="0" y="36">AND </tspan><tspan class="cls-5" x="32.51" y="36">SHARES</tspan><tspan x="73.66" y="36" xml:space="preserve"> ITS </tspan><tspan x="0" y="48">CONFIGURATION AS A </tspan></tspan><tspan x="0" y="60">URL</tspan></text><text class="cls-7" transform="translate(435.76 39.23)">JOHN FILLS THE <tspan class="cls-5" x="106.9" y="0">ONLINE </tspan><tspan class="cls-5"><tspan x="0" y="12">CONFIGURATION</tspan><tspan class="cls-6" x="98.06" y="12" xml:space="preserve"> FORM AND </tspan></tspan><tspan x="0" y="24">GETS AN </tspan><tspan class="cls-5" x="58.89" y="24">URL</tspan></text><text class="cls-7" transform="translate(182.9 285.56)">AUTHENTIFICATION</text><text class="cls-7" transform="translate(276.36 400.3)">DOO CAN <tspan class="cls-5" x="60.91" y="0">USE</tspan><tspan class="cls-5"><tspan x="0" y="12">THE URL</tspan><tspan class="cls-6" x="50.57" y="12" xml:space="preserve"> TO OBTAIN </tspan></tspan><tspan x="0" y="24">HER PERSONAL VIRTUAL </tspan><tspan x="0" y="36">ENVIRONMENT</tspan></text><text class="cls-7" transform="translate(503.75 242.88)">THE <tspan class="cls-5" x="28.8" y="0">CONFIGURATION</tspan><tspan x="126.86" y="0"> </tspan><tspan x="0" y="12">IS READ BY THE </tspan><tspan class="cls-5"><tspan x="0" y="24">COLLABORATIVE </tspan><tspan x="0" y="36">NETWORK MANAGER</tspan></tspan></text><text class="cls-3" transform="translate(554.37 359.19)">COLLABORATIVE <tspan x="0" y="14.4">WORKSPACE MANAGER</tspan></text><text class="cls-8" transform="translate(554.37 396.95)">CONSTRUCTS<tspan class="cls-6"><tspan x="0" y="12">A </tspan><tspan class="cls-5" x="14.63" y="12">CUSTOM VIRTUAL ENVIRONMENT</tspan><tspan x="210.21" y="12"> </tspan><tspan x="0" y="24">USING THE DATA GIVEN BY THE</tspan></tspan><tspan x="0" y="36">INFORMATION SYSTEM</tspan></text><text class="cls-7" transform="translate(368.38 516.21)">THE COLLABORATIVE WORKSPACE<tspan x="0" y="12">MANAGER PROVIDES</tspan><tspan x="0" y="24">A CUSTOM VIRTUAL ENVIRONMENT</tspan></text><text class="cls-7" transform="translate(609.97 9.84)">THE ADMIN <tspan class="cls-5" x="75.74" y="0">DEPLOYS </tspan><tspan x="133.42" y="0">THE </tspan><tspan x="0" y="12">COLLABORATIVE </tspan><tspan x="0" y="24">WORKSPACE MANAGER</tspan><tspan x="0" y="36">AND </tspan><tspan class="cls-5" x="32.51" y="36">PROVIDES </tspan><tspan x="96.23" y="36">THE </tspan><tspan x="0" y="48">CONFIGURATION FILE</tspan></text><text class="cls-7" transform="translate(633.38 97.64)">ADMINISTRATOR</text><text class="cls-4" transform="translate(659.48 339.27)">STEP</text></svg>