<svg id="Calque_1" data-name="Calque 1" xmlns="http://www.w3.org/2000/svg" viewBox="0 0 804.33 546.81"><defs><style>.cls-1,.cls-4,.cls-7,.cls-8,.cls-9{font-size:12px;}.cls-1,.cls-11,.cls-13,.cls-15,.cls-7{fill:#1d1d1b;}.cls-1,.cls-13,.cls-15,.cls-4,.cls-8,.cls-9{font-family:Purisa-Bold, Purisa;font-weight:700;}.cls-2{fill:#507b2e;}.cls-3,.cls-9{fill:#61afe2;}.cls-4,.cls-6{fill:#eb5d7b;}.cls-5{fill:#000;}.cls-7{font-family:Purisa;}.cls-10{stroke:#61afe2;}.cls-10,.cls-12{stroke-miterlimit:10;stroke-width:0.5px;}.cls-12,.cls-14{fill:#62afe1;}.cls-12{stroke:#62afe1;}.cls-13{font-size:10px;}.cls-15{font-size:12.05px;}</style></defs><title>mitm_texts</title><text class="cls-1" transform="translate(9.45 11.81)">JANE WANTS TO EXPERIMENT WITH <tspan x="0" y="14.4">INVARIANT THEORY OF FINITE GROUPS</tspan></text><text class="cls-1" transform="translate(532.81 98.93)">SHE WANTS:<tspan class="cls-2"><tspan x="0" y="14.4" xml:space="preserve"> GAP’S ORBIT ALGORITHM</tspan></tspan><tspan class="cls-3"><tspan x="0" y="28.8" xml:space="preserve"> SINGULAR’S GRÖBNER ALGORITHM</tspan></tspan></text><text class="cls-4" transform="translate(3.06 107.37)">GOAL:<tspan class="cls-5"><tspan x="0" y="14.4" xml:space="preserve"> CONSTRUCT AN IDEAL I</tspan><tspan x="0" y="28.8">THAT IS FIXED BY A GROUP G</tspan><tspan x="0" y="43.2">ACTING ON THE VARIABLES</tspan></tspan></text><text class="cls-1" transform="translate(9.45 49.59)">SHE IS A <tspan class="cls-6" x="72.38" y="0">SAGEMATH USER</tspan><tspan x="184.62" y="0" xml:space="preserve"> AND WANTS </tspan><tspan x="0" y="14.4">TO </tspan><tspan class="cls-5" x="26.85" y="14.4">RECEIVE THE RESULT IN </tspan><tspan class="cls-6" x="212.94" y="14.4">SAGEMATH</tspan></text><text class="cls-1" transform="translate(587.44 275.26)">SHE CALLS</text><path class="cls-2" d="M539.93,320.64c0-3.18,1.56-5.05,3.78-5.05s3.78,1.87,3.78,5.05-1.56,5.15-3.78,5.15S539.93,323.87,539.93,320.64Zm6.26,0c0-2.47-1-3.94-2.48-3.94s-2.47,1.47-2.47,3.94,1,4,2.47,4S546.19,323.16,546.19,320.64Z" transform="translate(-21.09 -25.68)"/><path class="cls-2" d="M558,318.59h6.45v.93H558Zm0,3.21h6.45v.93H558Z" transform="translate(-21.09 -25.68)"/><path class="cls-2" d="M574.29,315.77h1.53l1.38,4.2.48,1.59h.06l.47-1.59,1.39-4.2h1.53v9.84h-1.2v-4.92c0-1,.15-2.64.21-3.48h0l-.55,1.92L578.13,323h-.9l-1.38-3.87-.57-1.92h0c.09.84.21,2.52.21,3.48v4.92h-1.17Z" transform="translate(-21.09 -25.68)"/><path class="cls-2" d="M586.93,319.32h-3.37v-1h4.62v7.29h-1.25Zm-.49-3.49a1,1,0,1,1,1,1A.94.94,0,0,1,586.44,315.83Z" transform="translate(-21.09 -25.68)"/><path class="cls-2" d="M594.3,322.77v-3.45h-2.07v-.93l2.11-.07.17-2.34h1v2.34h3.57v1h-3.57v3.47c0,1.3.44,2,1.85,2a4.94,4.94,0,0,0,1.74-.33l.27.91a6.33,6.33,0,0,1-2.28.44C595,325.79,594.3,324.57,594.3,322.77Z" transform="translate(-21.09 -25.68)"/><path class="cls-2" d="M601.29,315.77h1.53l1.38,4.2.48,1.59h.06l.47-1.59,1.39-4.2h1.53v9.84h-1.2v-4.92c0-1,.15-2.64.21-3.48h0l-.55,1.92L605.13,323h-.9l-1.38-3.87-.57-1.92h0c.09.84.21,2.52.21,3.48v4.92h-1.17Z" transform="translate(-21.09 -25.68)"/><path class="cls-2" d="M612.5,324.51a1.21,1.21,0,1,1,1.21,1.28A1.21,1.21,0,0,1,612.5,324.51Z" transform="translate(-21.09 -25.68)"/><path class="cls-2" d="M619,320.69c0-3.18,1.82-5.1,4.37-5.1a3.59,3.59,0,0,1,2.71,1.2l-.72.79a2.56,2.56,0,0,0-2-.88c-1.85,0-3,1.51-3,4s1.09,4,3,4a2.49,2.49,0,0,0,1.7-.57v-2.57h-2v-1h3.13v4.14a4.16,4.16,0,0,1-3,1.14C620.79,325.79,619,323.9,619,320.69Z" transform="translate(-21.09 -25.68)"/><path class="cls-2" d="M631,315.77h1.44l3.31,9.84h-1.35l-1.69-5.49c-.35-1.1-.68-2.18-1-3.32h-.05c-.32,1.14-.63,2.22-1,3.32L629,325.61h-1.29Zm-1.56,5.83h4.51v1h-4.51Z" transform="translate(-21.09 -25.68)"/><path class="cls-2" d="M637.74,315.77h3c2.17,0,3.64.73,3.64,2.89s-1.48,3-3.64,3H639v3.9h-1.26Zm2.82,4.92c1.71,0,2.53-.63,2.53-2s-.84-1.87-2.53-1.87H639v3.9Z" transform="translate(-21.09 -25.68)"/><path class="cls-2" d="M648.49,324.51a1.22,1.22,0,1,1,1.22,1.28A1.21,1.21,0,0,1,648.49,324.51Z" transform="translate(-21.09 -25.68)"/><path class="cls-2" d="M655.11,322a3.61,3.61,0,1,1,3.6,3.81A3.57,3.57,0,0,1,655.11,322Zm5.92,0c0-1.68-.93-2.81-2.32-2.81s-2.33,1.13-2.33,2.81.93,2.77,2.33,2.77S661,323.64,661,322Z" transform="translate(-21.09 -25.68)"/><path class="cls-2" d="M665.38,318.32h1l.12,1.72h0a3.83,3.83,0,0,1,3.25-1.9,3,3,0,0,1,1.44.3L671,319.5a3.76,3.76,0,0,0-1.35-.24,3.42,3.42,0,0,0-3,2.09v4.26h-1.25Z" transform="translate(-21.09 -25.68)"/><path class="cls-2" d="M674.76,324.8h0l-.12.81h-1V314.93h1.25v2.91l-.06,1.41h0a3.56,3.56,0,0,1,2.45-1.11c2,0,3,1.45,3,3.7,0,2.49-1.56,4-3.29,4A3.6,3.6,0,0,1,674.76,324.8Zm4.27-2.94c0-1.61-.6-2.67-2-2.67a3.08,3.08,0,0,0-2.13,1.08v3.63a3.07,3.07,0,0,0,2,.84C678.07,324.74,679,323.66,679,321.86Z" transform="translate(-21.09 -25.68)"/><path class="cls-2" d="M685.93,319.32h-3.37v-1h4.62v7.29h-1.25Zm-.49-3.49a1,1,0,1,1,1,1A.94.94,0,0,1,685.44,315.83Z" transform="translate(-21.09 -25.68)"/><path class="cls-2" d="M693.3,322.77v-3.45h-2.07v-.93l2.11-.07.17-2.34h1v2.34h3.57v1h-3.57v3.47c0,1.3.44,2,1.85,2a4.94,4.94,0,0,0,1.74-.33l.27.91a6.38,6.38,0,0,1-2.28.44C694,325.79,693.3,324.57,693.3,322.77Z" transform="translate(-21.09 -25.68)"/><path class="cls-2" d="M702.33,321.44a8.33,8.33,0,0,1,3.36-6.81l.69.63a8,8,0,0,0,0,12.36l-.69.63A8.34,8.34,0,0,1,702.33,321.44Z" transform="translate(-21.09 -25.68)"/><path class="cls-2" d="M709,320.69c0-3.18,1.82-5.1,4.37-5.1a3.59,3.59,0,0,1,2.71,1.2l-.72.79a2.56,2.56,0,0,0-2-.88c-1.85,0-3,1.51-3,4s1.1,4,3,4a2.44,2.44,0,0,0,1.69-.57v-2.57h-1.95v-1h3.12v4.14a4.12,4.12,0,0,1-2.94,1.14C710.79,325.79,709,323.9,709,320.69Z" transform="translate(-21.09 -25.68)"/><path class="cls-2" d="M720.15,328A2.7,2.7,0,0,0,722,325.4l-.27-1.38.84,1.18a1.06,1.06,0,0,1-.84.35,1.08,1.08,0,0,1-1.17-1.13,1.12,1.12,0,0,1,1.2-1.14c.88,0,1.35.74,1.35,1.92a3.68,3.68,0,0,1-2.64,3.6Z" transform="translate(-21.09 -25.68)"/><path class="cls-2" d="M727.74,315.77h3c2.17,0,3.64.73,3.64,2.89s-1.48,3-3.64,3H729v3.9h-1.26Zm2.82,4.92c1.71,0,2.53-.63,2.53-2s-.84-1.87-2.53-1.87H729v3.9Z" transform="translate(-21.09 -25.68)"/><path class="cls-2" d="M737,327.62a8,8,0,0,0,0-12.36l.69-.63a8.58,8.58,0,0,1,0,13.62Z" transform="translate(-21.09 -25.68)"/><path class="cls-3" d="M540.54,341.41h2.29v-7.2h-2.29v-1h5.75v1H544v7.2h2.29v1h-5.75Z" transform="translate(-21.09 -25.68)"/><path class="cls-3" d="M558.2,335.85h6v.87h-6Zm0,3h6v.87h-6Z" transform="translate(-21.09 -25.68)"/><path class="cls-3" d="M573.82,333.22h1.43l1.29,3.92.44,1.49H577l.43-1.49,1.31-3.92h1.43v9.19h-1.12v-4.6c0-.89.14-2.46.19-3.25h0l-.52,1.8L577.41,340h-.85l-1.28-3.61-.54-1.8h0c.08.79.19,2.36.19,3.25v4.6h-1.09Z" transform="translate(-21.09 -25.68)"/><path class="cls-3" d="M585.62,336.54h-3.15v-.94h4.32v6.81h-1.17Zm-.46-3.26a.93.93,0,1,1,.92.89A.87.87,0,0,1,585.16,333.28Z" transform="translate(-21.09 -25.68)"/><path class="cls-3" d="M592.5,339.76v-3.22h-1.94v-.87l2-.07.15-2.18h1v2.18H597v.94h-3.33v3.23c0,1.22.4,1.85,1.72,1.85a4.55,4.55,0,0,0,1.63-.3l.25.85a6.07,6.07,0,0,1-2.13.41C593.14,342.58,592.5,341.44,592.5,339.76Z" transform="translate(-21.09 -25.68)"/><path class="cls-3" d="M599,333.22h1.43l1.29,3.92.44,1.49h.06l.43-1.49,1.31-3.92h1.43v9.19h-1.12v-4.6c0-.89.13-2.46.19-3.25h0l-.52,1.8L602.6,340h-.84l-1.28-3.61-.54-1.8h0c.08.79.19,2.36.19,3.25v4.6H599Z" transform="translate(-21.09 -25.68)"/><path class="cls-3" d="M609.48,341.39a1.14,1.14,0,1,1,1.13,1.19A1.13,1.13,0,0,1,609.48,341.39Z" transform="translate(-21.09 -25.68)"/><path class="cls-3" d="M615.75,341.22l.7-.81a3.88,3.88,0,0,0,2.69,1.13c1.26,0,2-.6,2-1.44s-.72-1.26-1.64-1.66l-1.33-.58a2.63,2.63,0,0,1-2-2.37c0-1.4,1.26-2.44,3-2.44a4,4,0,0,1,2.83,1.14l-.61.75a3.27,3.27,0,0,0-2.26-.85c-1.06,0-1.78.5-1.78,1.33s.86,1.2,1.64,1.51l1.29.58c1.14.44,2,1.09,2,2.45s-1.23,2.62-3.25,2.62A4.69,4.69,0,0,1,615.75,341.22Z" transform="translate(-21.09 -25.68)"/><path class="cls-3" d="M627.62,336.54h-3.15v-.94h4.32v6.81h-1.17Zm-.46-3.26a.93.93,0,1,1,.92.89A.87.87,0,0,1,627.16,333.28Z" transform="translate(-21.09 -25.68)"/><path class="cls-3" d="M632.91,335.6h1l.1,1.15H634a3.53,3.53,0,0,1,2.56-1.32c1.61,0,2.36.95,2.36,2.75v4.23h-1.17v-4.08c0-1.29-.45-1.89-1.55-1.89-.81,0-1.36.41-2.14,1.22v4.75h-1.17Z" transform="translate(-21.09 -25.68)"/><path class="cls-3" d="M641,343.66a1.89,1.89,0,0,1,1.12-1.52v-.05a1.23,1.23,0,0,1-.7-1.12,1.65,1.65,0,0,1,.81-1.28v-.06a2.17,2.17,0,0,1-.84-1.76,2.5,2.5,0,0,1,2.68-2.44,2.75,2.75,0,0,1,1,.17h2.82v.94h-1.76a2.09,2.09,0,0,1,.57,1.37,2.38,2.38,0,0,1-2.63,2.34,2.92,2.92,0,0,1-1.15-.25.92.92,0,0,0-.53.78c0,.54.51.79,1.41.79h1.53c1.75,0,2.59.45,2.59,1.6s-1.47,2.38-3.78,2.38C642.17,345.55,641,344.86,641,343.66Zm5.78-.31c0-.65-.51-.83-1.55-.83h-1.33a4.1,4.1,0,0,1-1-.11c-.64.35-.87.74-.87,1.13,0,.72.77,1.17,2.23,1.17S646.8,344.05,646.8,343.35Zm-1.14-5.48a1.57,1.57,0,1,0-1.57,1.61A1.55,1.55,0,0,0,645.66,337.87Z" transform="translate(-21.09 -25.68)"/><path class="cls-3" d="M649.49,339.83V335.6h1.16v4.08c0,1.27.45,1.89,1.57,1.89a2.7,2.7,0,0,0,2.11-1.25V335.6h1.17v6.81h-1l-.1-1.19h0a3.33,3.33,0,0,1-2.54,1.36C650.23,342.58,649.49,341.62,649.49,339.83Z" transform="translate(-21.09 -25.68)"/><path class="cls-3" d="M660.26,340.13v-6.76h-2.41v-.94h3.57v7.78a1.23,1.23,0,0,0,1.34,1.4,3.07,3.07,0,0,0,1.28-.31l.29.87a4.09,4.09,0,0,1-1.82.41C661.05,342.58,660.26,341.74,660.26,340.13Z" transform="translate(-21.09 -25.68)"/><path class="cls-3" d="M666.33,340.64c0-1.52,1.43-2.27,4.94-2.55a1.62,1.62,0,0,0-1.8-1.71,4.64,4.64,0,0,0-2.38.82l-.47-.79a6,6,0,0,1,3-1,2.53,2.53,0,0,1,2.78,2.8v4.18h-1l-.1-.93h0a4.56,4.56,0,0,1-2.67,1.1A2.07,2.07,0,0,1,666.33,340.64Zm4.94,0v-1.77c-2.91.23-3.79.8-3.79,1.7s.7,1.08,1.48,1.08A3.73,3.73,0,0,0,671.27,340.63Z" transform="translate(-21.09 -25.68)"/><path class="cls-3" d="M675.64,335.6h1l.11,1.61h0a3.58,3.58,0,0,1,3-1.78,2.86,2.86,0,0,1,1.34.28l-.27,1a3.25,3.25,0,0,0-1.26-.23,3.19,3.19,0,0,0-2.8,1.95v4h-1.16Z" transform="translate(-21.09 -25.68)"/><path class="cls-3" d="M685.08,341.39a1.14,1.14,0,1,1,1.13,1.19A1.13,1.13,0,0,1,685.08,341.39Z" transform="translate(-21.09 -25.68)"/><path class="cls-3" d="M691.74,341.41H694v-7.2h-2.28v-1h5.74v1H695.2v7.2h2.28v1h-5.74Z" transform="translate(-21.09 -25.68)"/><path class="cls-3" d="M699.65,339c0-2.22,1.47-3.59,3.08-3.59a2.94,2.94,0,0,1,2,.87h0l0-1.25v-2.62h1.16v10H705l-.1-.9h0a3.25,3.25,0,0,1-2.23,1.07C700.83,342.58,699.65,341.29,699.65,339Zm5.1,1.57V337.2a2.51,2.51,0,0,0-1.78-.79,2.32,2.32,0,0,0-2.13,2.59c0,1.63.76,2.6,2,2.6A2.59,2.59,0,0,0,704.75,340.59Z" transform="translate(-21.09 -25.68)"/><path class="cls-3" d="M708.16,339a3.42,3.42,0,0,1,3.47-3.56,2.93,2.93,0,0,1,3.11,3.2,4.68,4.68,0,0,1,0,.7h-5.76v-.9H714l-.29.32c0-1.61-.8-2.41-2.05-2.41a2.4,2.4,0,0,0-2.35,2.65,2.47,2.47,0,0,0,2.66,2.66A3.7,3.7,0,0,0,714,341l.42.75a4.64,4.64,0,0,1-2.63.82A3.45,3.45,0,0,1,708.16,339Z" transform="translate(-21.09 -25.68)"/><path class="cls-3" d="M716.73,340.64c0-1.52,1.43-2.27,4.94-2.55a1.62,1.62,0,0,0-1.8-1.71,4.64,4.64,0,0,0-2.38.82l-.47-.79a6,6,0,0,1,3-1,2.53,2.53,0,0,1,2.78,2.8v4.18h-1l-.1-.93h0a4.56,4.56,0,0,1-2.68,1.1A2.07,2.07,0,0,1,716.73,340.64Zm4.94,0v-1.77c-2.91.23-3.79.8-3.79,1.7s.7,1.08,1.48,1.08A3.73,3.73,0,0,0,721.67,340.63Z" transform="translate(-21.09 -25.68)"/><path class="cls-3" d="M727.45,340.13v-6.76H725v-.94h3.58v7.78a1.23,1.23,0,0,0,1.34,1.4,3.14,3.14,0,0,0,1.28-.31l.29.87a4.09,4.09,0,0,1-1.82.41C728.25,342.58,727.45,341.74,727.45,340.13Z" transform="translate(-21.09 -25.68)"/><path class="cls-3" d="M735.32,338.51a7.81,7.81,0,0,1,3.14-6.36l.64.59a7.46,7.46,0,0,0,0,11.55l-.64.58A7.78,7.78,0,0,1,735.32,338.51Z" transform="translate(-21.09 -25.68)"/><path class="cls-3" d="M741.48,337.77c0-3,1.46-4.72,3.53-4.72s3.53,1.75,3.53,4.72-1.46,4.81-3.53,4.81S741.48,340.78,741.48,337.77Zm5.84,0c0-2.31-.92-3.68-2.31-3.68s-2.31,1.37-2.31,3.68.92,3.77,2.31,3.77S747.32,340.13,747.32,337.77Z" transform="translate(-21.09 -25.68)"/><path class="cls-3" d="M750.92,344.29a7.46,7.46,0,0,0,0-11.55l.64-.59a8,8,0,0,1,0,12.72Z" transform="translate(-21.09 -25.68)"/><path class="cls-3" d="M540.7,350.57h2.79c2,0,3.37.67,3.37,2.4a2.13,2.13,0,0,1-1.72,2.14v.06c1.44.23,2.28,1,2.28,2.36,0,1.93-1.5,2.88-3.71,2.88h-3Zm2.58,4.14c1.68,0,2.35-.54,2.35-1.64s-.78-1.45-2.29-1.45h-1.4v3.09Zm.25,4.65c1.68,0,2.66-.56,2.66-1.89s-.93-1.71-2.66-1.71h-1.59v3.6Z" transform="translate(-21.09 -25.68)"/><path class="cls-3" d="M558,353.39h6.45v.93H558Zm0,3.21h6.45v.93H558Z" transform="translate(-21.09 -25.68)"/><path class="cls-3" d="M573.63,359.34h2.45v-7.71h-2.45v-1.06h6.15v1.06h-2.44v7.71h2.44v1.07h-6.15Z" transform="translate(-21.09 -25.68)"/><path class="cls-3" d="M584.5,359.31a1.21,1.21,0,1,1,1.21,1.28A1.21,1.21,0,0,1,584.5,359.31Z" transform="translate(-21.09 -25.68)"/><path class="cls-3" d="M591,355.49c0-3.18,1.82-5.1,4.37-5.1a3.59,3.59,0,0,1,2.71,1.2l-.72.79a2.56,2.56,0,0,0-2-.88c-1.85,0-3,1.51-3,4s1.09,4,3,4a2.49,2.49,0,0,0,1.7-.57v-2.57h-2v-1h3.13v4.14a4.16,4.16,0,0,1-3,1.14C592.79,360.59,591,358.7,591,355.49Z" transform="translate(-21.09 -25.68)"/><path class="cls-3" d="M601.38,353.12h1l.12,1.72h0a3.83,3.83,0,0,1,3.25-1.9,3,3,0,0,1,1.44.3L607,354.3a3.76,3.76,0,0,0-1.35-.24,3.43,3.43,0,0,0-3,2.09v4.26h-1.25Z" transform="translate(-21.09 -25.68)"/><path class="cls-3" d="M609.11,356.78a3.61,3.61,0,1,1,3.6,3.81A3.57,3.57,0,0,1,609.11,356.78Zm5.93,0c0-1.68-.94-2.81-2.33-2.81s-2.33,1.13-2.33,2.81.93,2.77,2.33,2.77S615,358.44,615,356.78Z" transform="translate(-21.09 -25.68)"/><path class="cls-3" d="M618.23,356.75a3.67,3.67,0,0,1,3.72-3.81,3.13,3.13,0,0,1,3.33,3.42,5.18,5.18,0,0,1-.06.75h-6.17v-1h5.43l-.31.34c0-1.72-.86-2.58-2.19-2.58a2.57,2.57,0,0,0-2.52,2.84,2.65,2.65,0,0,0,2.85,2.85,4,4,0,0,0,2.22-.69l.45.81a5,5,0,0,1-2.82.87A3.69,3.69,0,0,1,618.23,356.75Z" transform="translate(-21.09 -25.68)"/><path class="cls-3" d="M628.76,359.6h0l-.12.81h-1V349.73h1.25v2.91l-.06,1.41h0a3.58,3.58,0,0,1,2.45-1.11c2,0,3,1.45,3,3.7,0,2.49-1.56,3.95-3.29,3.95A3.6,3.6,0,0,1,628.76,359.6Zm4.28-2.94c0-1.61-.61-2.67-2.06-2.67a3.08,3.08,0,0,0-2.13,1.08v3.63a3.07,3.07,0,0,0,2,.84C632.08,359.54,633,358.46,633,356.66Z" transform="translate(-21.09 -25.68)"/><path class="cls-3" d="M636.6,353.12h1l.11,1.23h.06a3.74,3.74,0,0,1,2.74-1.41c1.73,0,2.52,1,2.52,2.94v4.53h-1.24V356c0-1.38-.48-2-1.67-2-.87,0-1.45.43-2.29,1.3v5.09H636.6Z" transform="translate(-21.09 -25.68)"/><path class="cls-3" d="M645.23,356.75a3.67,3.67,0,0,1,3.72-3.81,3.13,3.13,0,0,1,3.33,3.42,5.18,5.18,0,0,1-.06.75h-6.17v-1h5.43l-.31.34c0-1.72-.86-2.58-2.19-2.58a2.57,2.57,0,0,0-2.52,2.84,2.65,2.65,0,0,0,2.85,2.85,4,4,0,0,0,2.22-.69l.45.81a5,5,0,0,1-2.82.87A3.69,3.69,0,0,1,645.23,356.75Z" transform="translate(-21.09 -25.68)"/><path class="cls-3" d="M655.38,353.12h1l.12,1.72h0a3.83,3.83,0,0,1,3.25-1.9,3,3,0,0,1,1.44.3L661,354.3a3.76,3.76,0,0,0-1.35-.24,3.42,3.42,0,0,0-3,2.09v4.26h-1.25Z" transform="translate(-21.09 -25.68)"/><path class="cls-3" d="M665.33,356.24a8.33,8.33,0,0,1,3.36-6.81l.69.63a8,8,0,0,0,0,12.36l-.69.63A8.34,8.34,0,0,1,665.33,356.24Z" transform="translate(-21.09 -25.68)"/><path class="cls-3" d="M673,362.42a8,8,0,0,0,0-12.36l.69-.63a8.58,8.58,0,0,1,0,13.62Z" transform="translate(-21.09 -25.68)"/><path class="cls-6" d="M683.49,359.31a1.22,1.22,0,1,1,1.22,1.28A1.21,1.21,0,0,1,683.49,359.31Z" transform="translate(-21.09 -25.68)"/><path class="cls-6" d="M690.21,359.13l.75-.87a4.12,4.12,0,0,0,2.88,1.22c1.35,0,2.13-.65,2.13-1.55,0-1.05-.76-1.35-1.75-1.77l-1.43-.63a2.8,2.8,0,0,1-2.11-2.53c0-1.5,1.35-2.61,3.22-2.61a4.29,4.29,0,0,1,3,1.21l-.66.81a3.43,3.43,0,0,0-2.41-.91c-1.14,0-1.91.54-1.91,1.42s.92,1.29,1.76,1.62l1.38.62c1.21.48,2.17,1.17,2.17,2.62s-1.32,2.81-3.48,2.81A5,5,0,0,1,690.21,359.13Z" transform="translate(-21.09 -25.68)"/><path class="cls-6" d="M699.41,358.52c0-1.64,1.53-2.43,5.29-2.73a1.72,1.72,0,0,0-1.93-1.83,5,5,0,0,0-2.55.87l-.5-.84a6.39,6.39,0,0,1,3.26-1.05,2.71,2.71,0,0,1,3,3v4.47h-1l-.1-1h0a4.87,4.87,0,0,1-2.86,1.17A2.21,2.21,0,0,1,699.41,358.52Zm5.29,0v-1.89c-3.12.24-4.06.86-4.06,1.82s.75,1.15,1.59,1.15A4,4,0,0,0,704.7,358.5Z" transform="translate(-21.09 -25.68)"/><path class="cls-6" d="M708.29,361.74a2,2,0,0,1,1.2-1.62v-.06a1.32,1.32,0,0,1-.75-1.2,1.75,1.75,0,0,1,.87-1.36v-.06a2.32,2.32,0,0,1-.9-1.89,2.67,2.67,0,0,1,2.86-2.61,2.94,2.94,0,0,1,1.08.18h3v1h-1.89a2.22,2.22,0,0,1,.61,1.47,2.56,2.56,0,0,1-2.82,2.51,3.19,3.19,0,0,1-1.23-.27,1,1,0,0,0-.57.84c0,.57.56.84,1.52.84h1.63c1.88,0,2.78.48,2.78,1.71s-1.58,2.55-4.05,2.55C709.52,363.77,708.29,363,708.29,361.74Zm6.19-.33c0-.69-.55-.88-1.66-.88h-1.43a4.15,4.15,0,0,1-1.11-.12c-.69.37-.93.79-.93,1.21,0,.77.83,1.25,2.39,1.25S714.48,362.16,714.48,361.41Zm-1.23-5.86a1.68,1.68,0,1,0-1.68,1.72A1.65,1.65,0,0,0,713.25,355.55Z" transform="translate(-21.09 -25.68)"/><path class="cls-6" d="M717.23,356.75a3.67,3.67,0,0,1,3.72-3.81,3.13,3.13,0,0,1,3.33,3.42,5.18,5.18,0,0,1-.06.75h-6.17v-1h5.43l-.31.34c0-1.72-.86-2.58-2.19-2.58a2.57,2.57,0,0,0-2.52,2.84,2.65,2.65,0,0,0,2.85,2.85,4,4,0,0,0,2.22-.69l.45.81a5,5,0,0,1-2.82.87A3.69,3.69,0,0,1,717.23,356.75Z" transform="translate(-21.09 -25.68)"/><path class="cls-6" d="M728.33,356.24a8.33,8.33,0,0,1,3.36-6.81l.69.63a8,8,0,0,0,0,12.36l-.69.63A8.34,8.34,0,0,1,728.33,356.24Z" transform="translate(-21.09 -25.68)"/><path class="cls-6" d="M736,362.42a8,8,0,0,0,0-12.36l.69-.63a8.58,8.58,0,0,1,0,13.62Z" transform="translate(-21.09 -25.68)"/><text class="cls-7" transform="translate(614.64 352.01)">the Gröbner basis</text><text class="cls-7" transform="translate(744.94 307.35)">the orbit</text><text class="cls-7" transform="translate(738.76 332.61)">the ideal</text><text class="cls-1" transform="translate(57.25 210.86)">SHE NEEDS THE <tspan class="cls-3" x="118.02" y="0">GRÖBNER</tspan><tspan class="cls-3"><tspan x="0" y="14.4">BASIS B OF I</tspan></tspan></text><text class="cls-8" transform="translate(510.54 43.33)">PICK SOME POLYNOMIAL P FROM R<tspan x="0" y="14.4">AND CONSIDER THE IDEAL I OF R </tspan><tspan x="0" y="28.8">GENERATED BY THE ORBIT O OF P</tspan></text><text class="cls-1" transform="translate(502.08 171.53)">STEP</text><text class="cls-1" transform="translate(739.76 243.72)">STEP</text><text class="cls-1" transform="translate(505.93 196.39)">SHE CONSTRUCTS<tspan x="0" y="14.4">THE OBJECTS</tspan><tspan x="0" y="28.8">IN </tspan><tspan class="cls-6" x="26.3" y="28.8">SAGEMATH</tspan></text><text class="cls-9" transform="translate(278.55 493.99)"><tspan class="cls-10">M</tspan><tspan class="cls-11" x="9.35" y="0">ATH </tspan><tspan class="cls-10" x="46.13" y="0">I</tspan><tspan class="cls-11" x="54.09" y="0">N </tspan><tspan class="cls-10" x="72.43" y="0">T</tspan><tspan class="cls-11" x="83.04" y="0">HE </tspan><tspan class="cls-12" x="106.99" y="0">M</tspan><tspan class="cls-11" x="116.34" y="0">IDDLE</tspan><tspan class="cls-11"><tspan x="44.93" y="14.4">MEDIATOR</tspan></tspan></text><text class="cls-1" transform="translate(533.43 388.94)">TRANSLATION OF O TO G,P <tspan x="0" y="14.4">THE </tspan><tspan class="cls-2" x="34.56" y="14.4">GAP SYSTEM DIALECT</tspan></text><text class="cls-13" transform="translate(618.18 465.78)">COMPUTES THE<tspan class="cls-5"><tspan x="0" y="12">ORBIT O</tspan></tspan></text><text class="cls-13" transform="translate(46.39 403.13)">COMPUTES THE<tspan class="cls-5"><tspan x="0" y="12">GRÖBNER BASIS B</tspan></tspan></text><text class="cls-1" transform="translate(80.46 511.77)">TRANSLATION OF 0<tspan x="0" y="14.4">TO THE </tspan><tspan class="cls-14" x="61.42" y="14.4">SINGULAR</tspan><tspan class="cls-14"><tspan x="0" y="28.8">SYSTEM DIALECT</tspan></tspan></text><text class="cls-15" transform="translate(301.26 159.54)">JANE CAN<tspan x="8.55" y="14.46">SEE THE</tspan><tspan x="-1.95" y="28.92">RESULT IN</tspan><tspan class="cls-6"><tspan x="0.99" y="43.38">SAGEMATH</tspan></tspan></text><text class="cls-1" transform="translate(423.07 314.11)">STEP</text><path class="cls-11" d="M702.28,115.26s-.07,0-.1.09a.65.65,0,0,1-.11.12,1.88,1.88,0,0,1-.69.19,5.85,5.85,0,0,1-1,.08,1.55,1.55,0,0,1-.57-.09,2.72,2.72,0,0,1-.58-.34,4.21,4.21,0,0,1-1.15-1.63,5.11,5.11,0,0,1-.49-2.09,5.64,5.64,0,0,1,.5-2.26,3.83,3.83,0,0,1,1.3-1.68,2.58,2.58,0,0,1,1.11-.52,2,2,0,0,0,.44-.34,1,1,0,0,1,.63-.31.51.51,0,0,0,.33-.16.74.74,0,0,1,.54-.17,1.82,1.82,0,0,1,1.59.93,4.63,4.63,0,0,1,.59,2.49,8.78,8.78,0,0,1-.25,2.06,9.24,9.24,0,0,1-.6,1.84,6.37,6.37,0,0,1-.77,1.29C702.72,115.09,702.48,115.26,702.28,115.26Zm.84-3.19a14.08,14.08,0,0,1,.33-1.51,8,8,0,0,0,.25-1.19,2.34,2.34,0,0,0-.32-.91,3.61,3.61,0,0,0-.48-.76.77.77,0,0,0-.39-.07,5.32,5.32,0,0,0-1.41.26,3.34,3.34,0,0,0-2.26,2.92,8.19,8.19,0,0,0-.12,1,3.38,3.38,0,0,0,.29,1.15c.42,1.14,1,1.7,1.73,1.7a2,2,0,0,0,.65-.13,2.91,2.91,0,0,0,1-1A3.41,3.41,0,0,0,703.12,112.07Z" transform="translate(-21.09 -25.68)"/><path class="cls-11" d="M708.58,112.12a6.41,6.41,0,0,1,1,0,1.15,1.15,0,0,1,.45.13.27.27,0,0,1,.09.2.31.31,0,0,1-.17.26,1.41,1.41,0,0,1-.47.17,4.74,4.74,0,0,0-.57.15,2.22,2.22,0,0,1-.62.11l-.47,0h-.27a4.28,4.28,0,0,1-1-.07c-.17,0-.25-.18-.25-.4a.42.42,0,0,1,.29-.43A6.24,6.24,0,0,1,708.58,112.12Zm.34-1.66a1.44,1.44,0,0,1,.6.09.36.36,0,0,1,.18.36.4.4,0,0,1-.24.37,3.69,3.69,0,0,1-1.14.22c-.58.06-1.06.09-1.43.09a.78.78,0,0,1-.36-.06.47.47,0,0,1-.17-.26q-.06-.28-.06-.3a.22.22,0,0,1,.17-.21l.7-.14.29,0A14.37,14.37,0,0,1,708.92,110.46Z" transform="translate(-21.09 -25.68)"/><path class="cls-11" d="M717.12,111.19a1.21,1.21,0,0,0-.23.12,1.13,1.13,0,0,1-.61.13,2,2,0,0,1-.42,0,2.36,2.36,0,0,1-.44-.11.85.85,0,0,1-.37-.24.57.57,0,0,1-.14-.38.53.53,0,0,1,.2-.41,1.71,1.71,0,0,1,.43-.2,1.08,1.08,0,0,0,.33-.14.79.79,0,0,1,.59-.17,5.31,5.31,0,0,1,1.14.14,2.1,2.1,0,0,1,.93.35,2.68,2.68,0,0,1,.58,1.58,19.64,19.64,0,0,1,.17,2.64,3.16,3.16,0,0,1-.06.71.59.59,0,0,1-.46.34.53.53,0,0,1-.34-.11.79.79,0,0,1-.18-.39,2.62,2.62,0,0,1-.08-.53c0-.17,0-.42,0-.74V113l-.09.15a6.35,6.35,0,0,1-1.71,1.75,3.44,3.44,0,0,1-1.89.63,2.14,2.14,0,0,1-1-.24,1.33,1.33,0,0,1-.51-.44,3.24,3.24,0,0,1-.33-.85,4.24,4.24,0,0,1-.17-1.17,7.85,7.85,0,0,1,.07-1,6.56,6.56,0,0,1,.34-1.56,7.48,7.48,0,0,1,.91-1.54,6.62,6.62,0,0,1,1.05-1.17,5,5,0,0,1,1-.68l.75-.35a1,1,0,0,0,.4-.25.92.92,0,0,1,.77-.28,1.85,1.85,0,0,1,.91.24c.29.17.43.36.43.57a1.42,1.42,0,0,1-.15.57c-.11.21-.24.32-.39.32a.26.26,0,0,1-.25-.15,1.08,1.08,0,0,1-.11-.28c0-.1,0-.14-.09-.14a2,2,0,0,0-.62.13,6.18,6.18,0,0,0-1,.44,5,5,0,0,0-1.2,1,8.12,8.12,0,0,0-1.17,1.62,4.54,4.54,0,0,0-.47,1,6,6,0,0,0-.07,1.13,4.34,4.34,0,0,0,.17,1.55.69.69,0,0,0,.69.38,2.47,2.47,0,0,0,2-1,5.71,5.71,0,0,0,.69-1.07,2.16,2.16,0,0,0,.27-.82.32.32,0,0,0-.1-.23A.29.29,0,0,0,717.12,111.19Z" transform="translate(-21.09 -25.68)"/><path class="cls-11" d="M722,115.22a2,2,0,0,1,.66-1.19c.42-.44.73-.66.91-.66s.08,0,.09,0a.15.15,0,0,0,0-.07.61.61,0,0,1,.05-.12.43.43,0,0,1,.38-.17.53.53,0,0,1,.3.09.32.32,0,0,1,.15.23.25.25,0,0,0,.19.06.74.74,0,0,1,.63.35,1.34,1.34,0,0,1,.26.82A2.1,2.1,0,0,1,725,116a2,2,0,0,1-1.52.71,1.46,1.46,0,0,1-.69-.16,1.26,1.26,0,0,1-.46-.42,2.26,2.26,0,0,1-.23-.47A1.1,1.1,0,0,1,722,115.22Zm1.69-.11h0a.63.63,0,0,0,.39-.21C723.82,114.92,723.69,115,723.66,115.11Z" transform="translate(-21.09 -25.68)"/><path class="cls-11" d="M729.89,105.87a6,6,0,0,0,1-.1,6,6,0,0,1,1-.1h.26l.65.08.55.1a2.3,2.3,0,0,1,.5.14l.37.2a.77.77,0,0,1,.31.31,2.47,2.47,0,0,1,.16.42,2,2,0,0,1,.07.58,4.81,4.81,0,0,1-.15,1.12q-.15.63-.42.63a.22.22,0,0,0,0,.1.37.37,0,0,0,0,.08,3,3,0,0,1-.88,1,2.92,2.92,0,0,1-1.2.71l-.37.12a.38.38,0,0,0-.15.09l-.06.06a1.74,1.74,0,0,1-.91.16H730l.11,1.93a8.05,8.05,0,0,1,.2,1.44,8.49,8.49,0,0,1-.24.86.76.76,0,0,1-.38.39.35.35,0,0,1-.17,0c-.22,0-.35-.23-.39-.67-.11-.61-.22-1.75-.36-3.42s-.2-2.79-.2-3.38v-1l-.12.07a.83.83,0,0,1-.5.19.37.37,0,0,1-.26-.12.4.4,0,0,1-.13-.3c0-.25.25-.62.74-1.12a3.14,3.14,0,0,1,.61-.54.82.82,0,0,1,.47-.15h.21A1.23,1.23,0,0,0,729.89,105.87Zm3.84,1.95c0-.35-.35-.6-1.05-.74a6.31,6.31,0,0,0-.91-.14,9.21,9.21,0,0,0-1.16.18,1.6,1.6,0,0,0-.76.26,1.39,1.39,0,0,0-.13.76c0,.43,0,.89.08,1.39a3.15,3.15,0,0,0,.16.9h.14a5.28,5.28,0,0,0,1.06-.15,4.89,4.89,0,0,0,1.14-.38,1.61,1.61,0,0,0,.38-.27.51.51,0,0,0,.17-.26,1.76,1.76,0,0,1,.46-.79A1.47,1.47,0,0,0,733.73,107.82Z" transform="translate(-21.09 -25.68)"/><path class="cls-11" d="M767.09,112.46a.82.82,0,0,1,.39-.11.67.67,0,0,1,.44.15.48.48,0,0,1,.19.4q0,.34-.51.6a11.25,11.25,0,0,1-1.8.62,4.11,4.11,0,0,1-1.35.28h-.7a.63.63,0,0,1-.45-.18.55.55,0,0,1-.19-.42.48.48,0,0,1,.15-.42.83.83,0,0,1,.48-.11,3.47,3.47,0,0,0,1.2-.27l.62-.24-.1-2.08c-.08-1.46-.11-2.62-.11-3.48v-1.06l-.22,0a7.89,7.89,0,0,1-1.41.22c-.58,0-.87-.17-.87-.49a.33.33,0,0,1,.15-.26,1.54,1.54,0,0,1,.46-.21q.3-.11.6-.18l.76-.18.77-.2a5.29,5.29,0,0,1,1.15-.07A2.75,2.75,0,0,1,768,105a.52.52,0,0,1,.23.42.41.41,0,0,1-.26.39,2.67,2.67,0,0,1-.87.17l-.23,0,0,1.92A32.26,32.26,0,0,0,767.09,112.46Z" transform="translate(-21.09 -25.68)"/><path class="cls-11" d="M770.84,109.05a8.24,8.24,0,0,1,1,0,.91.91,0,0,1,.44.14.24.24,0,0,1,.09.2.3.3,0,0,1-.16.25,1.29,1.29,0,0,1-.47.17,4.74,4.74,0,0,0-.57.15,2.73,2.73,0,0,1-.62.12l-.47,0-.27,0a4.2,4.2,0,0,1-1-.08c-.16,0-.24-.18-.24-.4a.41.41,0,0,1,.29-.43A6.24,6.24,0,0,1,770.84,109.05Zm.34-1.66a1.44,1.44,0,0,1,.6.09.36.36,0,0,1,.18.36.4.4,0,0,1-.24.37,3.69,3.69,0,0,1-1.14.22c-.59.06-1.06.09-1.43.09a.78.78,0,0,1-.36-.06.44.44,0,0,1-.17-.26l-.06-.29a.2.2,0,0,1,.17-.21,4.09,4.09,0,0,1,.69-.14l.29,0A14.72,14.72,0,0,1,771.18,107.39Z" transform="translate(-21.09 -25.68)"/><path class="cls-11" d="M774.06,108.53l3.6,5.58H777l-3.59-5.58L777,103h.71Z" transform="translate(-21.09 -25.68)"/><path class="cls-11" d="M783.26,112.92s-.06,0-.1.09a.63.63,0,0,1-.1.12,2.05,2.05,0,0,1-.7.2,6.92,6.92,0,0,1-1,.07,1.55,1.55,0,0,1-.57-.09,2.7,2.7,0,0,1-.57-.34,4.15,4.15,0,0,1-1.16-1.63,5.26,5.26,0,0,1-.48-2.09,5.54,5.54,0,0,1,.49-2.25,3.86,3.86,0,0,1,1.3-1.68,2.61,2.61,0,0,1,1.11-.53,1.74,1.74,0,0,0,.45-.34,1,1,0,0,1,.62-.31.44.44,0,0,0,.33-.16.74.74,0,0,1,.54-.16,1.8,1.8,0,0,1,1.59.93,4.54,4.54,0,0,1,.6,2.49,8.7,8.7,0,0,1-.25,2.05,9.33,9.33,0,0,1-.61,1.85,5.85,5.85,0,0,1-.77,1.28C783.71,112.76,783.47,112.92,783.26,112.92Zm.85-3.19a11.18,11.18,0,0,1,.32-1.5,7,7,0,0,0,.25-1.2,2.2,2.2,0,0,0-.31-.9,4.5,4.5,0,0,0-.48-.77.92.92,0,0,0-.4-.07,5,5,0,0,0-1.41.27,3.34,3.34,0,0,0-2.26,2.91,8.19,8.19,0,0,0-.12,1,3.64,3.64,0,0,0,.29,1.15c.43,1.14,1,1.71,1.73,1.71a1.91,1.91,0,0,0,.65-.14,2.83,2.83,0,0,0,1-1A3.59,3.59,0,0,0,784.11,109.73Z" transform="translate(-21.09 -25.68)"/><path class="cls-11" d="M790.11,108.53l-3.6-5.57h.7l3.59,5.57-3.59,5.58h-.7Z" transform="translate(-21.09 -25.68)"/><path class="cls-11" d="M793.11,112.25a1.27,1.27,0,0,1,.35-.56c.22-.24.37-.37.46-.37s.63,0,1.28.12a10.89,10.89,0,0,1,1.16.17.67.67,0,0,1,.53.7,1.25,1.25,0,0,1-.17.63,2.62,2.62,0,0,1-.37.53l-.21.25s0,.07-.11.13l-.25.18-.34.19-.33.18-.27.14-.12.06a7.5,7.5,0,0,1,1.49.56,2.23,2.23,0,0,0,.35.21.81.81,0,0,1,.39.28.69.69,0,0,1,.24.37c0,.18-.08.27-.22.27a1.07,1.07,0,0,1-.41-.13l-.72-.37a7.94,7.94,0,0,0-.87-.38l-.46-.17,0,.69c0,.2,0,.36,0,.49a1.06,1.06,0,0,1,0,.21.22.22,0,0,1-.08.15.26.26,0,0,1-.2.08c-.14,0-.23-.08-.28-.25a2.44,2.44,0,0,1-.08-.7c0-.56-.08-.88-.23-.94s-.27-.19-.27-.34.09-.24.26-.33l.17-.07-.05-.73a5.44,5.44,0,0,0-.12-1,.34.34,0,0,1-.23.08.29.29,0,0,1-.31-.29Zm3.22.14a4.87,4.87,0,0,0-.62-.17,4.11,4.11,0,0,0-.89-.1h-.47l.08.27c0,.35.09.89.14,1.64a5.29,5.29,0,0,0,.57-.25,3.27,3.27,0,0,0,.52-.32,2.42,2.42,0,0,0,.42-.53A2,2,0,0,0,796.33,112.39Z" transform="translate(-21.09 -25.68)"/><text class="cls-13" transform="translate(0 478.18)">CONSTRUCTS<tspan class="cls-5"><tspan x="0" y="12">THE IDEAL I</tspan></tspan></text><text class="cls-8" transform="translate(7.22 169.6)"><tspan xml:space="preserve"> LINK PROPERTIES OF G</tspan><tspan x="0" y="14.4">TO PROPERTIES OF I</tspan></text><path d="M660.29,213.6h2.26c1.46,0,2.53.52,2.53,2s-1.07,2.14-2.53,2.14h-1.32v3h-.94Zm2.12,3.42c1.13,0,1.74-.47,1.74-1.39s-.61-1.29-1.74-1.29h-1.18V217Zm.67,0,2.21,3.78h-1l-1.88-3.3Z" transform="translate(-21.09 -25.68)"/><path d="M673.34,215.66h4.73v.69h-4.73Zm0,2.36h4.73v.68h-4.73Z" transform="translate(-21.09 -25.68)"/><path d="M686.32,220.25l4-5.88h-3.66v-.79h4.81v.57l-4,5.88h4.08v.78h-5.21Z" transform="translate(-21.09 -25.68)"/><path d="M692.92,220.25l4-5.88h-3.66v-.79h4.81v.57l-4,5.88h4.08v.78h-5.21Z" transform="translate(-21.09 -25.68)"/><path d="M701.28,213h3v.52H702V222h2.32v.51h-3Z" transform="translate(-21.09 -25.68)"/><path d="M708.11,214.46v-1.21h1.21l0,1.21-.28,2.48h-.62Z" transform="translate(-21.09 -25.68)"/><path d="M714.73,218l-1.87-2.57h1l.85,1.16a9,9,0,0,0,.62.9h0c.2-.28.42-.61.6-.91l.79-1.15h1l-1.89,2.65,2,2.69h-1l-.92-1.23c-.23-.3-.47-.66-.7-1h0c-.22.32-.44.64-.66,1l-.88,1.22h-1Z" transform="translate(-21.09 -25.68)"/><path d="M719.67,220.05h2V214.9h-1.57v-.59a4.9,4.9,0,0,0,1.8-.52h.69v6.26h1.82v.76h-4.76Z" transform="translate(-21.09 -25.68)"/><path d="M727.36,222.58a2,2,0,0,0,1.38-1.92l-.2-1,.62.87a.81.81,0,0,1-.62.25.79.79,0,0,1-.85-.83.81.81,0,0,1,.88-.83c.65,0,1,.54,1,1.41a2.72,2.72,0,0,1-1.94,2.64Z" transform="translate(-21.09 -25.68)"/><path d="M734.53,218l-1.87-2.57h1l.85,1.16a9,9,0,0,0,.62.9h0c.2-.28.42-.61.6-.91l.79-1.15h1l-1.89,2.65,2.05,2.69h-1l-.92-1.23c-.23-.3-.47-.66-.7-1h0c-.22.32-.44.64-.66,1l-.88,1.22h-1Z" transform="translate(-21.09 -25.68)"/><path d="M739.2,220.27c2.38-2.1,3.68-3.33,3.68-4.5,0-.8-.49-1.36-1.52-1.36a2.38,2.38,0,0,0-1.68.84l-.53-.52a3.13,3.13,0,0,1,2.32-1.07,2,2,0,0,1,2.29,2.07c0,1.32-1.32,2.63-3.22,4.36.43,0,.89-.06,1.3-.06h2.3v.78H739.2Z" transform="translate(-21.09 -25.68)"/><path d="M747.16,222.58a2,2,0,0,0,1.38-1.92l-.2-1,.62.87a.81.81,0,0,1-.62.25.79.79,0,0,1-.85-.83.81.81,0,0,1,.88-.83c.65,0,1,.54,1,1.41a2.72,2.72,0,0,1-1.94,2.64Z" transform="translate(-21.09 -25.68)"/><path d="M754.33,218l-1.87-2.57h1l.85,1.16a9,9,0,0,0,.62.9H755c.19-.28.42-.61.6-.91l.79-1.15h1l-1.89,2.65,2,2.69h-1l-.92-1.23c-.23-.3-.47-.66-.7-1h-.05c-.22.32-.44.64-.66,1l-.88,1.22h-1Z" transform="translate(-21.09 -25.68)"/><path d="M758.83,220l.46-.59a2.83,2.83,0,0,0,2,.83c1,0,1.67-.5,1.67-1.28s-.7-1.4-2.54-1.4v-.69c1.66,0,2.3-.57,2.3-1.31s-.58-1.1-1.43-1.1a2.71,2.71,0,0,0-1.73.7l-.48-.57a3.42,3.42,0,0,1,2.24-.88c1.33,0,2.33.65,2.33,1.78,0,.85-.63,1.39-1.5,1.68v0a1.94,1.94,0,0,1,1.74,1.78c0,1.25-1.15,2-2.54,2A3.42,3.42,0,0,1,758.83,220Z" transform="translate(-21.09 -25.68)"/><path d="M767,222.58a2,2,0,0,0,1.38-1.92l-.2-1,.62.87a.81.81,0,0,1-.62.25.79.79,0,0,1-.85-.83.81.81,0,0,1,.88-.83c.65,0,1,.54,1,1.41a2.72,2.72,0,0,1-1.94,2.64Z" transform="translate(-21.09 -25.68)"/><path d="M774.13,218l-1.87-2.57h1l.85,1.16a9,9,0,0,0,.62.9h0c.19-.28.42-.61.6-.91l.79-1.15h1l-1.89,2.65,2,2.69h-1l-.92-1.23c-.23-.3-.47-.66-.7-1h0c-.22.32-.44.64-.66,1l-.88,1.22h-1Z" transform="translate(-21.09 -25.68)"/><path d="M782.05,216c0-.38,0-.86.05-1.24h-.05c-.23.34-.49.68-.72,1l-1.89,2.38H784v.74h-5.57v-.61l3.5-4.48h1v7h-.86Z" transform="translate(-21.09 -25.68)"/><path d="M787.31,214.46l0-1.21h1.21v1.21l-.28,2.48h-.62Z" transform="translate(-21.09 -25.68)"/><path d="M792.28,222h2.32v-8.43h-2.32V213h3.05v9.46h-3.05Z" transform="translate(-21.09 -25.68)"/><path d="M660.32,226.8h2.18c1.6,0,2.67.53,2.67,2.12s-1.08,2.23-2.67,2.23h-1.25V234h-.93Zm2.07,3.6c1.26,0,1.86-.46,1.86-1.48s-.62-1.38-1.86-1.38h-1.14v2.86Z" transform="translate(-21.09 -25.68)"/><path d="M673.34,228.86h4.73v.69h-4.73Zm0,2.36h4.73v.68h-4.73Z" transform="translate(-21.09 -25.68)"/><path d="M686.23,233.15l.46-.59a2.83,2.83,0,0,0,2,.83c1,0,1.68-.5,1.68-1.28s-.71-1.4-2.55-1.4V230c1.67,0,2.3-.57,2.3-1.31s-.58-1.1-1.43-1.1a2.66,2.66,0,0,0-1.72.7l-.49-.57a3.4,3.4,0,0,1,2.25-.88c1.32,0,2.32.65,2.32,1.78,0,.85-.63,1.39-1.5,1.68v0a1.93,1.93,0,0,1,1.74,1.78c0,1.25-1.14,2-2.54,2A3.43,3.43,0,0,1,686.23,233.15Z" transform="translate(-21.09 -25.68)"/><path d="M693.71,232.46l1.2-1.81-1.79-.77.18-.51,1.84.61.09-2.08h.55l.08,2.08,1.84-.61.18.51-1.79.77,1.2,1.81-.47.33L695.5,231l-1.32,1.75Z" transform="translate(-21.09 -25.68)"/><path d="M701.53,231.24l-1.87-2.57h1l.85,1.16a9,9,0,0,0,.62.9h0c.2-.28.42-.61.6-.91l.8-1.15h1l-1.89,2.65L704.7,234h-1l-.93-1.23c-.23-.3-.47-.66-.7-1h0c-.22.32-.44.64-.66,1l-.88,1.22h-1Z" transform="translate(-21.09 -25.68)"/><path d="M706.47,233.25h2V228.1h-1.57v-.59a5.1,5.1,0,0,0,1.8-.52h.69v6.26h1.82V234h-4.76Z" transform="translate(-21.09 -25.68)"/><path d="M721.54,230.72h-2V230h2V227.9h.72V230h2v.68h-2v2.15h-.72Z" transform="translate(-21.09 -25.68)"/><path d="M732.6,233.47c2.38-2.1,3.68-3.33,3.68-4.5,0-.8-.49-1.36-1.52-1.36a2.38,2.38,0,0,0-1.68.84l-.53-.52a3.13,3.13,0,0,1,2.32-1.07,2,2,0,0,1,2.29,2.07c0,1.32-1.32,2.63-3.23,4.36.44,0,.9-.06,1.31-.06h2.3V234H732.6Z" transform="translate(-21.09 -25.68)"/><path d="M739.91,232.46l1.2-1.81-1.79-.77.18-.51,1.84.61.09-2.08H742l.08,2.08,1.84-.61.18.51-1.79.77,1.2,1.81-.47.33L741.7,231l-1.32,1.75Z" transform="translate(-21.09 -25.68)"/><path d="M747.73,231.24l-1.87-2.57h1l.85,1.16a9,9,0,0,0,.62.9h0c.2-.28.42-.61.6-.91l.79-1.15h1l-1.89,2.65,2,2.69h-1l-.92-1.23c-.23-.3-.47-.66-.7-1h0c-.22.32-.44.64-.66,1l-.88,1.22h-1Z" transform="translate(-21.09 -25.68)"/><path d="M752.4,233.47c2.38-2.1,3.68-3.33,3.68-4.5,0-.8-.49-1.36-1.52-1.36a2.38,2.38,0,0,0-1.68.84l-.53-.52a3.13,3.13,0,0,1,2.32-1.07,2,2,0,0,1,2.29,2.07c0,1.32-1.32,2.63-3.23,4.36.44,0,.9-.06,1.31-.06h2.3V234H752.4Z" transform="translate(-21.09 -25.68)"/><path d="M659.78,243.6c0-2.33,1.34-3.74,3.21-3.74a2.67,2.67,0,0,1,2,.88l-.53.59a1.85,1.85,0,0,0-1.46-.65c-1.36,0-2.24,1.11-2.24,2.9s.81,2.95,2.21,2.95a1.8,1.8,0,0,0,1.25-.42v-1.88h-1.43v-.76h2.29v3a3.08,3.08,0,0,1-2.16.83C661.09,247.34,659.78,246,659.78,243.6Z" transform="translate(-21.09 -25.68)"/><path d="M673.34,242.06h4.73v.69h-4.73Zm0,2.36h4.73v.68h-4.73Z" transform="translate(-21.09 -25.68)"/><path d="M686.56,240h1.78c2.17,0,3.34,1.28,3.34,3.57s-1.17,3.64-3.3,3.64h-1.82Zm1.71,6.45c1.64,0,2.46-1,2.46-2.88s-.82-2.82-2.46-2.82h-.79v5.7Z" transform="translate(-21.09 -25.68)"/><path d="M695.67,242.6h-2.48v-.73h3.39v5.34h-.91ZM695.3,240a.69.69,0,0,1,.73-.7.7.7,0,1,1-.73.7Z" transform="translate(-21.09 -25.68)"/><path d="M699.82,239.38h.92v2.13l-.06,1.27h0a2.71,2.71,0,0,1,2-1.05c1.26,0,1.84.75,1.84,2.16v3.32h-.91V244c0-1-.35-1.48-1.22-1.48a2.29,2.29,0,0,0-1.68.95v3.73h-.92Z" transform="translate(-21.09 -25.68)"/><path d="M706.15,244.53a2.69,2.69,0,0,1,2.73-2.8,2.3,2.3,0,0,1,2.44,2.51,4,4,0,0,1,0,.55h-4.53v-.7h4l-.24.25c0-1.26-.62-1.89-1.6-1.89a1.89,1.89,0,0,0-1.85,2.08,1.94,1.94,0,0,0,2.09,2.09,2.89,2.89,0,0,0,1.63-.51l.33.6a3.68,3.68,0,0,1-2.07.63A2.7,2.7,0,0,1,706.15,244.53Z" transform="translate(-21.09 -25.68)"/><path d="M712.66,244.55a2.58,2.58,0,0,1,2.42-2.82,2.32,2.32,0,0,1,1.61.69h0l0-1v-2.06h.91v7.83h-.75l-.08-.7h0a2.57,2.57,0,0,1-1.75.83C713.58,247.34,712.66,246.33,712.66,244.55Zm4,1.23v-2.66a2,2,0,0,0-1.4-.62,1.82,1.82,0,0,0-1.67,2c0,1.27.59,2,1.57,2A2,2,0,0,0,716.67,245.78Z" transform="translate(-21.09 -25.68)"/><path d="M720.2,241.87H721l.08,1.26h0a2.81,2.81,0,0,1,2.38-1.4,2.32,2.32,0,0,1,1.06.22l-.21.78a2.68,2.68,0,0,0-1-.17,2.52,2.52,0,0,0-2.2,1.53v3.12h-.91Z" transform="translate(-21.09 -25.68)"/><path d="M726.08,245.83c0-1.2,1.12-1.79,3.88-2a1.27,1.27,0,0,0-1.42-1.34,3.73,3.73,0,0,0-1.87.64l-.36-.62a4.7,4.7,0,0,1,2.39-.77,2,2,0,0,1,2.18,2.2v3.28h-.76l-.08-.72h0a3.63,3.63,0,0,1-2.1.85C726.91,247.34,726.08,246.78,726.08,245.83Zm3.88,0v-1.38c-2.28.17-3,.63-3,1.33s.55.85,1.17.85A2.89,2.89,0,0,0,730,245.81Z" transform="translate(-21.09 -25.68)"/><path d="M734.51,245.42v-5.3h-1.9v-.74h2.81v6.1a1,1,0,0,0,1.06,1.11,2.41,2.41,0,0,0,1-.25l.23.68a3.26,3.26,0,0,1-1.43.32C735.13,247.34,734.51,246.68,734.51,245.42Z" transform="translate(-21.09 -25.68)"/><path d="M739,243.6c0-2.33,1.33-3.74,3.2-3.74a2.67,2.67,0,0,1,2,.88l-.53.59a1.86,1.86,0,0,0-1.47-.65c-1.35,0-2.23,1.11-2.23,2.9s.8,2.95,2.21,2.95a1.8,1.8,0,0,0,1.25-.42v-1.88H742v-.76h2.28v3a3,3,0,0,1-2.15.83C740.29,247.34,739,246,739,243.6Z" transform="translate(-21.09 -25.68)"/><path d="M746.6,241.87h.75l.09,1.26h0a2.84,2.84,0,0,1,2.39-1.4,2.32,2.32,0,0,1,1.06.22l-.21.78a2.68,2.68,0,0,0-1-.17,2.52,2.52,0,0,0-2.2,1.53v3.12h-.91Z" transform="translate(-21.09 -25.68)"/><path d="M752.26,244.55a2.64,2.64,0,1,1,2.64,2.79A2.62,2.62,0,0,1,752.26,244.55Zm4.35,0c0-1.23-.69-2.06-1.71-2.06s-1.7.83-1.7,2.06.68,2,1.7,2S756.61,245.77,756.61,244.55Z" transform="translate(-21.09 -25.68)"/><path d="M759.05,245.19v-3.32H760v3.2c0,1,.35,1.48,1.23,1.48a2.09,2.09,0,0,0,1.66-1v-3.7h.92v5.34H763l-.08-.93h0a2.63,2.63,0,0,1-2,1.06C759.63,247.34,759.05,246.6,759.05,245.19Z" transform="translate(-21.09 -25.68)"/><path d="M765.82,241.87h.75l.08.68h0a2.82,2.82,0,0,1,1.85-.82c1.44,0,2.21,1.07,2.21,2.73,0,1.82-1.14,2.88-2.43,2.88a2.55,2.55,0,0,1-1.6-.69h0l0,1v1.81h-.92Zm4,2.59c0-1.18-.44-2-1.51-2a2.29,2.29,0,0,0-1.56.8V246a2.2,2.2,0,0,0,1.42.61C769.1,246.57,769.81,245.78,769.81,244.46Z" transform="translate(-21.09 -25.68)"/><path d="M773.69,244.15a6.12,6.12,0,0,1,2.46-5l.51.46a5.84,5.84,0,0,0,0,9.07l-.51.46A6.12,6.12,0,0,1,773.69,244.15Z" transform="translate(-21.09 -25.68)"/><path d="M782.05,242.38c0-.38,0-.86.05-1.24h-.05c-.23.34-.49.68-.72,1l-1.89,2.38H784v.74h-5.57v-.61l3.5-4.48h1v7h-.86Z" transform="translate(-21.09 -25.68)"/><path d="M785.94,248.69a5.84,5.84,0,0,0,0-9.07l.51-.46a6.3,6.3,0,0,1,0,10Z" transform="translate(-21.09 -25.68)"/></svg>