<?xml version="1.0" encoding="utf-8"?>
<!-- Generator: Adobe Illustrator 15.0.0, SVG Export Plug-In . SVG Version: 6.00 Build 0)  -->
<!DOCTYPE svg PUBLIC "-//W3C//DTD SVG 1.1//EN" "http://www.w3.org/Graphics/SVG/1.1/DTD/svg11.dtd">
<svg version="1.1" id="Calque_1" xmlns="http://www.w3.org/2000/svg" xmlns:xlink="http://www.w3.org/1999/xlink" x="0px" y="0px"
	 width="166px" height="145.5px" viewBox="0 0 166 145.5" enable-background="new 0 0 166 145.5" xml:space="preserve">
<g id="Calque_1_1_" display="none">
	<g id="LOGO" display="inline">
		<g>
			<g>
				<path fill="#65CA45" d="M47.467,5.419c0,0-12.806,0-19.484,0c-11.257,0-19.287,3.818-18.442,13.613
					c1.512,17.513,32.906,12.862,38.181,35.003C51.586,34.531,32.906,32.77,23.891,25.84c-3.531-2.713-4.22-10.352,3.023-10.352
					c2.516,0,15.218,0,15.218,0L47.467,5.419z"/>
				<path fill="#00486F" d="M2.914,19.068c0,19.33,15.346,23.363,24.466,28.768c3.827,2.271,4.215,10.353-3.033,10.353
					c-2.512,0-21.237,0-21.237,0v29.627l10.573-4.547V68.259c3.439,0,7.029,0,9.6,0c11.262,0,18.442-3.784,18.442-13.617
					C41.726,34.355,7.253,39.449,2.914,19.068z"/>
			</g>
			<path fill="#696A6D" d="M80.213,16.137l-4.987-8.812c-0.804-1.395-1.247-2.067-2.539-2.067c-1.256,0-1.978,0.123-1.978,0.123
				v13.887h2.361V8.269l5.531,9.734c0.63,1.076,1.128,1.38,2.224,1.38c1.073,0,1.749-0.082,1.749-0.082V5.374h-2.361V16.137z"/>
			<path fill="#696A6D" d="M95.143,16.542L90.717,5.446l-0.023-0.072h-2.471l4.924,12.457c0.483,1.204,1.045,1.694,2.014,1.674
				c0.923-0.019,1.333-0.019,1.333-0.019l5.385-14.111H99.43L95.143,16.542z"/>
			<polygon fill="#696A6D" points="162.038,1.927 159.57,1.927 157.516,4.701 159.068,4.701 			"/>
			<path fill="#696A6D" d="M66.005,14.479c0,1.863-1.032,2.884-2.964,2.884c-1.937,0-2.941-1.02-2.941-2.884V5.446h-2.33v9.235
				c0,2.668,1.959,4.748,5.339,4.748c3.315,0,5.348-2.079,5.348-4.748V5.446h-2.452V14.479z"/>
			<rect x="84.881" y="5.482" fill="#696A6D" width="2.571" height="13.714"/>
			<polygon fill="#696A6D" points="141.23,7.468 144.971,7.468 144.971,19.196 147.541,19.196 147.541,7.468 151.277,7.468 
				151.277,5.482 141.23,5.482 			"/>
			<rect x="137.361" y="5.482" fill="#696A6D" width="2.57" height="13.714"/>
			<path fill="#696A6D" d="M131.419,11.066c-1.394-0.654-2.599-1.222-2.599-2.146c0-0.865,0.492-1.339,1.384-1.339h4.741V5.414
				h-4.494c-2.371,0-3.905,1.412-3.905,3.603c0,2.323,2.11,3.322,3.964,4.2c1.475,0.697,2.756,1.301,2.756,2.385
				c0,0.777-0.242,1.495-1.996,1.495h-4.818v2.165h5.143c2.434,0,3.95-1.461,3.95-3.813
				C135.543,13.008,133.255,11.933,131.419,11.066z"/>
			<path fill="#696A6D" d="M124.925,9.765c0-5.04-4.913-4.383-9.837-4.36h-0.955v13.81h2.297V7.498l0,0
				c4.818-0.311,6.217,0.388,6.217,2.266c0,1.735-1.48,2.372-4.115,2.372h-0.447l-0.682,2.017l4.892,5.117h2.918l-5.006-5.207
				C124.039,13.635,124.925,12.056,124.925,9.765z"/>
			<polygon fill="#696A6D" points="103.309,19.196 111.887,19.16 111.887,17.174 105.88,17.174 105.88,13.196 110.963,13.196 
				111.721,11.212 105.88,11.212 105.88,7.468 111.887,7.468 111.887,5.482 103.309,5.482 			"/>
			<polygon fill="#696A6D" points="152.871,19.196 161.443,19.16 161.443,17.174 155.441,17.174 155.441,13.196 160.521,13.196 
				161.284,11.212 155.441,11.212 155.441,7.468 161.443,7.468 161.443,5.482 152.871,5.482 			"/>
			<path fill="#696A6D" d="M128.665,35.867c0-10.065-9.824-8.756-19.651-8.705H107.1V54.74h4.59v-23.4l0,0
				c9.623-0.621,12.418,0.774,12.418,4.527c0,3.464-2.955,4.737-8.211,4.737h-0.896l-1.364,4.029l9.772,10.22h5.832L119.24,44.448
				C126.893,43.596,128.665,40.445,128.665,35.867z"/>
			<path fill="#696A6D" d="M65.799,44.633c10.258,0.839,13.591-3.865,13.591-8.766c0-10.065-9.824-8.756-19.652-8.705h-1.909V54.74
				h4.59v-23.4l0,0c9.623-0.621,12.414,0.774,12.414,4.527c0,3.464-2.859,5.035-8.212,4.737h-0.89l-1.283,3.838L65.799,44.633z"/>
			<g>
				<path fill="#696A6D" d="M133.534,26.9h5.144v27.953h-5.144V26.9z"/>
			</g>
			<path fill="#696A6D" d="M101.227,54.854h5.065L93.436,26.926h-5.522l-11.39,27.973l5.005-0.046l3.705-9.358h11.842
				L101.227,54.854z M86.779,41.584l4.033-10.182l4.521,10.182H86.779z"/>
			<path fill="#696A6D" d="M154.201,54.739H143.91v-4.321h9.643c3.493,0,3.981-1.438,3.981-2.989c0-2.168-2.55-3.375-5.503-4.77
				c-3.723-1.758-7.934-3.753-7.934-8.398c0-4.378,3.064-7.202,7.815-7.202h9.503v4.327h-10.002c-1.781,0-2.768,0.952-2.768,2.684
				c0,1.843,2.412,2.977,5.197,4.291c3.672,1.724,8.243,3.879,8.243,8.761C162.087,51.821,159.064,54.739,154.201,54.739
				L154.201,54.739z"/>
			<path fill="#696A6D" d="M68.306,88.466H58.012v-4.327h9.641c3.498,0,3.982-1.439,3.982-2.992c0-2.166-2.548-3.371-5.504-4.77
				c-3.718-1.756-7.929-3.751-7.929-8.395c0-4.373,3.06-7.201,7.81-7.201h9.509v4.326h-10.01c-1.776,0-2.758,0.953-2.758,2.686
				c0,1.847,2.412,2.978,5.193,4.287c3.672,1.732,8.244,3.889,8.244,8.764C76.189,85.545,73.17,88.466,68.306,88.466L68.306,88.466z
				"/>
			<path fill="#696A6D" d="M100.732,60.77h-5.389v17.973c0,3.726-2.064,5.765-5.929,5.765c-3.862,0-5.886-2.038-5.886-5.765V60.77
				h-4.654v18.363c0,5.342,3.914,9.502,10.682,9.502c6.627,0,10.688-4.16,10.688-9.502V64.948"/>
			<path fill="#696A6D" d="M100.643,87.516c0,0,1.039,0.779,5.791,0.758c9.892-0.045,14.121-5.834,14.121-14.017
				c0-8.006-5.854-13.488-12.193-13.488H95.346l2.396,4.311h8.77c6.982,0,9.156,5.591,9.156,9.341c0,4.093-1.969,9.772-8.829,9.772
				c-1.687,0-4.293-0.457-4.293-0.457L100.643,87.516z"/>
		</g>
	</g>
	<g id="REFERENCE" display="inline">
	</g>
</g>
<g id="Calque_2" display="none">
	<g display="inline">
		<path fill="#646469" d="M7.609,124.13c-1.235,0-2.304-0.45-3.122-1.269c-1.169-1.17-1.152-2.488-1.152-4.775
			c0-2.288-0.017-3.607,1.152-4.775c0.818-0.817,1.887-1.269,3.122-1.269c2.187,0,3.823,1.286,4.241,3.656h-1.837
			c-0.284-1.203-1.085-2.037-2.404-2.037c-0.701,0-1.336,0.267-1.753,0.718c-0.585,0.635-0.718,1.319-0.718,3.707
			c0,2.389,0.133,3.072,0.718,3.707c0.417,0.451,1.052,0.718,1.753,0.718c1.319,0,2.137-0.835,2.421-2.036h1.82
			C11.449,122.844,9.763,124.13,7.609,124.13z"/>
		<path fill="#646469" d="M19.215,123.128c-0.551,0.567-1.386,1.002-2.538,1.002c-1.152,0-1.97-0.435-2.521-1.002
			c-0.801-0.834-1.002-1.903-1.002-3.339c0-1.419,0.2-2.488,1.002-3.322c0.551-0.568,1.369-1.002,2.521-1.002
			c1.152,0,1.987,0.434,2.538,1.002c0.801,0.834,1.002,1.903,1.002,3.322C20.217,121.225,20.017,122.293,19.215,123.128z
			 M17.929,117.468c-0.317-0.317-0.751-0.483-1.252-0.483c-0.501,0-0.919,0.166-1.236,0.483c-0.518,0.517-0.584,1.403-0.584,2.321
			s0.067,1.804,0.584,2.32c0.317,0.317,0.735,0.502,1.236,0.502c0.501,0,0.935-0.185,1.252-0.502
			c0.518-0.517,0.585-1.402,0.585-2.32S18.447,117.984,17.929,117.468z"/>
		<path fill="#646469" d="M32.341,124.03v-5.159c0-1.319-0.751-1.887-1.703-1.887c-0.918,0-1.753,0.584-1.753,1.803v5.243h-1.703
			v-5.159c0-1.319-0.751-1.887-1.703-1.887s-1.753,0.584-1.753,1.887v5.159h-1.703v-8.466h1.67v0.852
			c0.568-0.618,1.403-0.951,2.254-0.951c1.052,0,1.87,0.417,2.404,1.235c0.684-0.835,1.536-1.235,2.655-1.235
			c0.868,0,1.636,0.284,2.137,0.768c0.651,0.635,0.901,1.437,0.901,2.389v5.41L32.341,124.03L32.341,124.03z"/>
		<path fill="#646469" d="M42.144,123.379c-0.467,0.467-1.202,0.751-2.053,0.751c-0.902,0-1.603-0.233-2.221-0.968v4.291h-1.703
			v-11.889h1.67v0.902c0.635-0.768,1.319-1.002,2.238-1.002c0.851,0,1.603,0.284,2.07,0.751c0.852,0.851,0.952,2.288,0.952,3.573
			C43.096,121.074,42.996,122.527,42.144,123.379z M39.64,116.984c-1.536,0-1.77,1.302-1.77,2.805s0.234,2.822,1.77,2.822
			c1.536,0,1.753-1.319,1.753-2.822S41.176,116.984,39.64,116.984z"/>
		<path fill="#646469" d="M49.56,117.551c-0.384-0.384-0.685-0.568-1.269-0.568c-0.918,0-1.687,0.734-1.687,1.904v5.143h-1.703
			v-8.467h1.67v0.92c0.434-0.602,1.302-1.019,2.254-1.019c0.818,0,1.436,0.218,2.02,0.802L49.56,117.551z"/>
		<path fill="#646469" d="M52.984,120.29c0,1.452,0.768,2.371,2.154,2.371c0.951,0,1.452-0.269,2.054-0.868l1.085,1.018
			c-0.868,0.869-1.687,1.319-3.172,1.319c-2.121,0-3.807-1.118-3.807-4.341c0-2.738,1.419-4.324,3.59-4.324
			c2.271,0,3.59,1.669,3.59,4.074v0.751H52.984z M56.557,117.952c-0.267-0.634-0.868-1.069-1.67-1.069
			c-0.801,0-1.419,0.434-1.686,1.069c-0.167,0.384-0.2,0.634-0.217,1.151h3.807C56.774,118.587,56.724,118.336,56.557,117.952z"/>
		<path fill="#646469" d="M65.391,124.03v-5.159c0-1.319-0.751-1.887-1.703-1.887s-1.753,0.584-1.753,1.887v5.159h-1.703v-8.466
			h1.67v0.852c0.584-0.635,1.403-0.951,2.254-0.951c0.868,0,1.586,0.284,2.087,0.768c0.651,0.635,0.851,1.437,0.851,2.389v5.41
			L65.391,124.03L65.391,124.03z"/>
		<path fill="#646469" d="M74.075,124.03v-0.902c-0.634,0.769-1.319,1.002-2.237,1.002c-0.851,0-1.603-0.284-2.07-0.751
			c-0.851-0.852-0.951-2.305-0.951-3.59c0-1.286,0.1-2.723,0.951-3.573c0.468-0.467,1.202-0.751,2.054-0.751
			c0.901,0,1.603,0.217,2.221,0.951v-4.273h1.703v11.888H74.075z M72.289,116.984c-1.536,0-1.77,1.302-1.77,2.805
			s0.234,2.822,1.77,2.822s1.753-1.319,1.753-2.822S73.825,116.984,72.289,116.984z"/>
		<path fill="#646469" d="M82.609,117.551c-0.384-0.384-0.684-0.568-1.269-0.568c-0.919,0-1.687,0.734-1.687,1.904v5.143H77.95
			v-8.467h1.67v0.92c0.434-0.602,1.302-1.019,2.254-1.019c0.818,0,1.436,0.218,2.021,0.802L82.609,117.551z"/>
		<path fill="#646469" d="M86.033,120.29c0,1.452,0.768,2.371,2.154,2.371c0.951,0,1.451-0.269,2.053-0.868l1.086,1.018
			c-0.868,0.869-1.688,1.319-3.174,1.319c-2.119,0-3.807-1.118-3.807-4.341c0-2.738,1.42-4.324,3.59-4.324
			c2.271,0,3.59,1.669,3.59,4.074v0.751H86.033z M89.607,117.952c-0.268-0.634-0.869-1.069-1.67-1.069
			c-0.803,0-1.42,0.434-1.687,1.069c-0.167,0.384-0.2,0.634-0.217,1.151h3.807C89.824,118.587,89.773,118.336,89.607,117.952z"/>
		<path fill="#646469" d="M99.059,124.03c-1.619,0-2.32-1.085-2.32-2.339v-9.549h1.703v9.45c0,0.651,0.233,0.985,0.918,0.985h0.752
			v1.453L99.059,124.03L99.059,124.03z"/>
		<path fill="#646469" d="M102.732,120.29c0,1.452,0.769,2.371,2.154,2.371c0.951,0,1.452-0.269,2.055-0.868l1.084,1.018
			c-0.867,0.869-1.687,1.319-3.172,1.319c-2.121,0-3.808-1.118-3.808-4.341c0-2.738,1.419-4.324,3.591-4.324
			c2.271,0,3.59,1.669,3.59,4.074v0.751H102.732z M106.307,117.952c-0.268-0.634-0.867-1.069-1.67-1.069
			c-0.802,0-1.419,0.434-1.686,1.069c-0.167,0.384-0.202,0.634-0.217,1.151h3.806C106.521,118.587,106.473,118.336,106.307,117.952z
			"/>
		<path fill="#646469" d="M123.807,124.03v-5.159c0-1.319-0.752-1.887-1.703-1.887c-0.918,0-1.754,0.584-1.754,1.803v5.243h-1.703
			v-5.159c0-1.319-0.752-1.887-1.703-1.887s-1.754,0.584-1.754,1.887v5.159h-1.703v-8.466h1.671v0.852
			c0.567-0.618,1.401-0.951,2.254-0.951c1.052,0,1.87,0.417,2.403,1.235c0.686-0.835,1.537-1.235,2.656-1.235
			c0.867,0,1.635,0.284,2.137,0.768c0.65,0.635,0.902,1.437,0.902,2.389v5.41L123.807,124.03L123.807,124.03z"/>
		<path fill="#646469" d="M133.292,123.128c-0.551,0.567-1.385,1.002-2.537,1.002c-1.151,0-1.97-0.435-2.522-1.002
			c-0.799-0.834-1.002-1.903-1.002-3.339c0-1.419,0.203-2.488,1.002-3.322c0.553-0.568,1.369-1.002,2.522-1.002
			c1.152,0,1.987,0.434,2.537,1.002c0.802,0.834,1.002,1.903,1.002,3.322C134.294,121.225,134.094,122.293,133.292,123.128z
			 M132.007,117.468c-0.315-0.317-0.751-0.483-1.252-0.483s-0.918,0.166-1.235,0.483c-0.518,0.517-0.586,1.403-0.586,2.321
			s0.068,1.804,0.586,2.32c0.317,0.317,0.734,0.502,1.235,0.502s0.935-0.185,1.252-0.502c0.519-0.517,0.585-1.402,0.585-2.32
			C132.591,118.871,132.525,117.984,132.007,117.468z"/>
		<path fill="#646469" d="M141.259,124.03v-5.159c0-1.319-0.752-1.887-1.702-1.887c-0.953,0-1.754,0.584-1.754,1.887v5.159H136.1
			v-8.466h1.67v0.852c0.584-0.635,1.401-0.951,2.254-0.951c0.867,0,1.586,0.284,2.086,0.768c0.652,0.635,0.852,1.437,0.852,2.389
			v5.41L141.259,124.03L141.259,124.03z"/>
		<path fill="#646469" d="M149.943,124.03v-0.902c-0.635,0.769-1.318,1.002-2.238,1.002c-0.852,0-1.602-0.284-2.068-0.751
			c-0.854-0.852-0.953-2.305-0.953-3.59c0-1.286,0.1-2.723,0.953-3.573c0.467-0.467,1.201-0.751,2.053-0.751
			c0.9,0,1.602,0.217,2.221,0.951v-4.273h1.703v11.888H149.943z M148.156,116.984c-1.535,0-1.77,1.302-1.77,2.805
			s0.233,2.822,1.77,2.822c1.537,0,1.754-1.319,1.754-2.822S149.693,116.984,148.156,116.984z"/>
		<path fill="#646469" d="M155.07,120.29c0,1.452,0.768,2.371,2.154,2.371c0.951,0,1.453-0.269,2.053-0.868l1.086,1.018
			c-0.868,0.869-1.686,1.319-3.174,1.319c-2.119,0-3.806-1.118-3.806-4.341c0-2.738,1.419-4.324,3.589-4.324
			c2.272,0,3.59,1.669,3.59,4.074v0.751H155.07z M158.645,117.952c-0.268-0.634-0.869-1.069-1.67-1.069s-1.42,0.434-1.687,1.069
			c-0.167,0.384-0.2,0.634-0.218,1.151h3.808C158.861,118.587,158.811,118.336,158.645,117.952z"/>
		<path fill="#646469" d="M162.436,126.434v-3.873h1.469v2.554L162.436,126.434z"/>
		<path fill="#646469" d="M7.442,142.294c-1.904,0-3.774-1.169-3.774-4.341s1.87-4.324,3.774-4.324c1.169,0,1.987,0.334,2.788,1.186
			l-1.169,1.135c-0.534-0.585-0.952-0.801-1.62-0.801c-0.651,0-1.202,0.268-1.569,0.75c-0.368,0.468-0.501,1.069-0.501,2.054
			c0,0.985,0.133,1.603,0.501,2.071c0.367,0.483,0.918,0.75,1.569,0.75c0.668,0,1.085-0.217,1.62-0.801l1.169,1.118
			C9.429,141.943,8.611,142.294,7.442,142.294z"/>
		<path fill="#646469" d="M18.731,141.292c-0.551,0.567-1.386,1.002-2.538,1.002c-1.152,0-1.97-0.435-2.521-1.002
			c-0.801-0.834-1.002-1.903-1.002-3.339c0-1.419,0.2-2.488,1.002-3.322c0.551-0.568,1.369-1.002,2.521-1.002
			c1.152,0,1.987,0.434,2.538,1.002c0.801,0.834,1.002,1.903,1.002,3.322C19.732,139.389,19.532,140.458,18.731,141.292z
			 M17.445,135.632c-0.317-0.317-0.751-0.483-1.252-0.483s-0.919,0.166-1.236,0.483c-0.518,0.517-0.584,1.403-0.584,2.321
			s0.067,1.804,0.584,2.32c0.317,0.317,0.735,0.502,1.236,0.502s0.935-0.185,1.252-0.502c0.518-0.517,0.585-1.402,0.585-2.32
			S17.962,136.15,17.445,135.632z"/>
		<path fill="#646469" d="M28.066,142.193v-5.158c0-1.319-0.751-1.887-1.703-1.887c-0.952,0-1.753,0.584-1.753,1.887v5.158h-1.703
			v-8.465h1.67v0.852c0.585-0.635,1.403-0.951,2.254-0.951c0.868,0,1.586,0.284,2.087,0.768c0.651,0.635,0.851,1.437,0.851,2.389
			v5.41h-1.703V142.193z"/>
		<path fill="#646469" d="M35.999,142.294c-1.386,0-2.554-0.233-3.556-1.219l1.119-1.118c0.685,0.701,1.603,0.885,2.438,0.885
			c1.035,0,1.853-0.367,1.853-1.169c0-0.567-0.317-0.935-1.135-1.002l-1.352-0.116c-1.586-0.134-2.504-0.852-2.504-2.338
			c0-1.652,1.419-2.588,3.189-2.588c1.269,0,2.354,0.268,3.139,0.951l-1.069,1.085c-0.534-0.451-1.286-0.617-2.087-0.617
			c-1.018,0-1.536,0.451-1.536,1.085c0,0.501,0.267,0.885,1.169,0.969l1.336,0.116c1.586,0.134,2.521,0.886,2.521,2.388
			C39.522,141.376,38.019,142.294,35.999,142.294z"/>
		<path fill="#646469" d="M44.984,142.193c-1.586,0-2.321-1.135-2.321-2.354v-4.658h-0.969v-1.303h0.969v-2.57h1.703v2.57h1.636
			v1.303h-1.636v4.575c0,0.617,0.301,0.985,0.935,0.985h0.701v1.453h-1.018V142.193z"/>
		<path fill="#646469" d="M53.701,135.716c-0.384-0.384-0.684-0.567-1.269-0.567c-0.919,0-1.687,0.733-1.687,1.903v5.142h-1.703
			v-8.465h1.67v0.918c0.434-0.601,1.302-1.018,2.254-1.018c0.818,0,1.436,0.217,2.02,0.801L53.701,135.716z"/>
		<path fill="#646469" d="M62.351,142.193v-0.851c-0.584,0.634-1.402,0.952-2.254,0.952c-0.869,0-1.586-0.284-2.087-0.768
			c-0.651-0.635-0.851-1.437-0.851-2.389v-5.41h1.703v5.16c0,1.319,0.751,1.887,1.703,1.887s1.753-0.584,1.753-1.887v-5.16h1.703
			v8.467h-1.67V142.193z"/>
		<path fill="#646469" d="M67.546,132.061v-1.805h1.803v1.805H67.546z M67.596,142.193v-8.465h1.703v8.465H67.596z"/>
		<path fill="#646469" d="M77.532,135.716c-0.384-0.384-0.684-0.567-1.269-0.567c-0.919,0-1.687,0.733-1.687,1.903v5.142h-1.703
			v-8.465h1.67v0.918c0.434-0.601,1.302-1.018,2.254-1.018c0.818,0,1.436,0.217,2.02,0.801L77.532,135.716z"/>
		<path fill="#646469" d="M82.325,138.454c0,1.452,0.768,2.371,2.153,2.371c0.953,0,1.453-0.269,2.055-0.868l1.085,1.018
			c-0.868,0.868-1.687,1.319-3.173,1.319c-2.12,0-3.806-1.118-3.806-4.341c0-2.738,1.42-4.324,3.589-4.324
			c2.271,0,3.59,1.669,3.59,4.074v0.751H82.325z M85.898,136.117c-0.268-0.635-0.869-1.069-1.67-1.069
			c-0.801,0-1.419,0.435-1.687,1.069c-0.167,0.384-0.2,0.634-0.217,1.152h3.807C86.116,136.751,86.066,136.501,85.898,136.117z"/>
		<path fill="#646469" d="M98.09,142.193c-1.619,0-2.322-1.084-2.322-2.338v-9.549h1.705v9.45c0,0.651,0.232,0.985,0.918,0.985h0.75
			v1.453H98.09V142.193z"/>
		<path fill="#646469" d="M101.831,133.579v-3.272h1.87v1.754L101.831,133.579z"/>
		<path fill="#646469" d="M111.783,142.193v-0.769c-0.617,0.618-1.202,0.869-2.254,0.869c-1.053,0-1.754-0.251-2.271-0.769
			c-0.434-0.45-0.668-1.103-0.668-1.819c0-1.42,0.985-2.437,2.922-2.437h2.238v-0.603c0-1.069-0.535-1.587-1.854-1.587
			c-0.935,0-1.385,0.217-1.853,0.818l-1.12-1.051c0.803-0.935,1.639-1.219,3.04-1.219c2.32,0,3.49,0.985,3.49,2.905v5.659H111.783z
			 M111.75,138.454h-1.986c-1.002,0-1.521,0.451-1.521,1.219c0,0.769,0.483,1.202,1.552,1.202c0.65,0,1.135-0.05,1.587-0.484
			c0.25-0.25,0.368-0.65,0.368-1.252V138.454z"/>
		<path fill="#646469" d="M120.217,142.193h-1.385l-3.105-8.465h1.803l2.005,5.961l1.987-5.961h1.804L120.217,142.193z"/>
		<path fill="#646469" d="M126.932,138.454c0,1.452,0.768,2.371,2.153,2.371c0.952,0,1.453-0.269,2.054-0.868l1.086,1.018
			c-0.869,0.868-1.687,1.319-3.174,1.319c-2.119,0-3.806-1.118-3.806-4.341c0-2.738,1.419-4.324,3.589-4.324
			c2.271,0,3.59,1.669,3.59,4.074v0.751H126.932z M130.504,136.117c-0.268-0.635-0.867-1.069-1.67-1.069
			c-0.8,0-1.419,0.435-1.686,1.069c-0.168,0.384-0.2,0.634-0.217,1.152h3.807C130.721,136.751,130.671,136.501,130.504,136.117z"/>
		<path fill="#646469" d="M140.707,142.193v-5.158c0-1.319-0.751-1.887-1.703-1.887c-0.951,0-1.753,0.584-1.753,1.887v5.158h-1.703
			v-8.465h1.669v0.852c0.586-0.635,1.403-0.951,2.256-0.951c0.867,0,1.584,0.284,2.086,0.768c0.65,0.635,0.851,1.437,0.851,2.389
			v5.41h-1.702V142.193z"/>
		<path fill="#646469" d="M145.852,132.061v-1.805h1.805v1.805H145.852z M145.902,142.193v-8.465h1.703v8.465H145.902z"/>
		<path fill="#646469" d="M155.838,135.716c-0.385-0.384-0.686-0.567-1.27-0.567c-0.918,0-1.687,0.733-1.687,1.903v5.142h-1.702
			v-8.465h1.67v0.918c0.434-0.601,1.303-1.018,2.254-1.018c0.818,0,1.436,0.217,2.021,0.801L155.838,135.716z"/>
		<path fill="#646469" d="M162.18,137.756c-1.927,0-3.488-1.561-3.488-3.488c0-1.926,1.562-3.486,3.488-3.486
			c1.928,0,3.487,1.56,3.487,3.486C165.667,136.195,164.107,137.756,162.18,137.756z M162.18,131.426
			c-1.561,0-2.793,1.252-2.793,2.842s1.232,2.842,2.793,2.842c1.562,0,2.784-1.252,2.784-2.842
			C164.964,132.68,163.741,131.426,162.18,131.426z M162.912,136.146l-0.771-1.492h-0.482v1.492h-0.694v-3.766h1.416
			c0.714,0,1.216,0.529,1.216,1.156c0,0.529-0.328,0.876-0.742,1.021l0.838,1.588H162.912z M162.295,132.968h-0.636v1.138h0.636
			c0.366,0,0.617-0.252,0.617-0.568C162.912,133.218,162.661,132.968,162.295,132.968z"/>
	</g>
	<g display="inline">
		<g>
			<path fill="#62C624" d="M47.936,5.404c0,0-12.749,0-19.397,0c-11.21,0-19.203,3.801-18.361,13.554
				c1.504,17.437,32.765,12.807,38.014,34.853c3.849-19.42-14.751-21.173-23.729-28.074c-3.513-2.701-4.2-10.308,3.014-10.308
				c2.504,0,15.152,0,15.152,0L47.936,5.404z"/>
			<path fill="#004D73" d="M3.579,18.994c0,19.247,15.279,23.262,24.359,28.644c3.812,2.261,4.198,10.308-3.017,10.308
				c-2.505,0-21.148,0-21.148,0v29.5l10.526-4.527V67.972c3.425,0,6.999,0,9.563,0c11.212,0,18.36-3.767,18.36-13.558
				C42.222,34.215,7.897,39.286,3.579,18.994z"/>
		</g>
		<path fill="#646469" d="M80.542,16.075l-4.965-8.774c-0.799-1.389-1.244-2.057-2.527-2.057c-1.252,0-1.973,0.122-1.973,0.122
			v13.827h2.351V8.241l5.511,9.692c0.626,1.07,1.12,1.374,2.21,1.374c1.073,0,1.744-0.082,1.744-0.082V5.358h-2.352L80.542,16.075
			L80.542,16.075z"/>
		<path fill="#646469" d="M95.408,16.479L91.004,5.43l-0.025-0.072h-2.461l4.902,12.403c0.484,1.2,1.044,1.688,2.01,1.667
			c0.916-0.02,1.324-0.02,1.324-0.02l5.361-14.05H99.68L95.408,16.479z"/>
		<polygon fill="#646469" points="162.014,1.927 159.557,1.927 157.51,4.689 159.057,4.689 		"/>
		<path fill="#646469" d="M66.394,14.425c0,1.855-1.025,2.872-2.949,2.872c-1.93,0-2.931-1.016-2.931-2.872V5.43h-2.319v9.194
			c0,2.657,1.951,4.727,5.319,4.727c3.301,0,5.323-2.07,5.323-4.727V5.43h-2.443V14.425z"/>
		<rect x="85.188" y="5.467" fill="#646469" width="2.561" height="13.655"/>
		<polygon fill="#646469" points="141.296,7.444 145.021,7.444 145.021,19.121 147.581,19.121 147.581,7.444 151.301,7.444 
			151.301,5.467 141.296,5.467 		"/>
		<rect x="137.445" y="5.467" fill="#646469" width="2.56" height="13.655"/>
		<path fill="#646469" d="M131.527,11.026c-1.389-0.651-2.586-1.216-2.586-2.136c0-0.862,0.49-1.334,1.375-1.334h4.725V5.399h-4.479
			c-2.36,0-3.888,1.406-3.888,3.588c0,2.312,2.101,3.307,3.951,4.181c1.466,0.694,2.74,1.295,2.74,2.376
			c0,0.773-0.241,1.487-1.985,1.487h-4.8v2.156h5.123c2.422,0,3.93-1.456,3.93-3.796C135.633,12.96,133.355,11.89,131.527,11.026z"
			/>
		<path fill="#646469" d="M125.064,9.731c0-5.019-4.897-4.365-9.795-4.341h-0.953v13.749h2.285V7.474l0,0
			c4.799-0.309,6.189,0.387,6.189,2.257c0,1.727-1.473,2.361-4.094,2.361h-0.445l-0.679,2.008l4.87,5.096h2.908l-4.985-5.185
			C124.18,13.584,125.064,12.012,125.064,9.731z"/>
		<polygon fill="#646469" points="103.539,19.121 112.08,19.085 112.08,17.108 106.1,17.108 106.1,13.147 111.159,13.147 
			111.916,11.172 106.1,11.172 106.1,7.444 112.08,7.444 112.08,5.467 103.539,5.467 		"/>
		<polygon fill="#646469" points="152.885,19.121 161.425,19.085 161.425,17.108 155.445,17.108 155.445,13.147 160.505,13.147 
			161.262,11.172 155.445,11.172 155.445,7.444 161.425,7.444 161.425,5.467 152.885,5.467 		"/>
		<path fill="#646469" d="M128.785,35.72c0-10.021-9.781-8.718-19.568-8.667h-1.902v27.458h4.569V31.212l0,0
			c9.582-0.618,12.363,0.771,12.363,4.507c0,3.45-2.942,4.717-8.177,4.717h-0.889l-1.361,4.012l9.732,10.176h5.805L119.4,44.265
			C127.021,43.416,128.785,40.279,128.785,35.72z"/>
		<path fill="#646469" d="M66.193,44.449c10.211,0.835,13.532-3.848,13.532-8.729c0-10.021-9.781-8.718-19.568-8.667h-1.902v27.458
			h4.571V31.212l0,0c9.581-0.618,12.361,0.771,12.361,4.507c0,3.45-2.846,5.014-8.177,4.717h-0.889l-1.276,3.822L66.193,44.449z"/>
		<g>
			<path fill="#646469" d="M133.635,26.793h5.12v27.832h-5.12V26.793z"/>
		</g>
		<path fill="#646469" d="M101.465,54.625h5.044L93.706,26.818h-5.498L76.868,54.67l4.986-0.045l3.687-9.317h11.79L101.465,54.625z
			 M87.083,41.413l4.013-10.139l4.502,10.139H87.083z"/>
		<path fill="#646469" d="M154.209,54.511h-10.246v-4.302h9.602c3.48,0,3.963-1.432,3.963-2.977c0-2.159-2.537-3.36-5.475-4.749
			c-3.707-1.751-7.9-3.737-7.9-8.361c0-4.359,3.051-7.17,7.779-7.17h9.463v4.308h-9.959c-1.772,0-2.754,0.948-2.754,2.673
			c0,1.835,2.4,2.964,5.172,4.273c3.655,1.717,8.209,3.862,8.209,8.723C162.064,51.606,159.055,54.511,154.209,54.511
			L154.209,54.511z"/>
		<path fill="#646469" d="M68.687,88.092h-10.25v-4.308h9.6c3.486,0,3.966-1.435,3.966-2.979c0-2.158-2.54-3.355-5.478-4.748
			c-3.703-1.75-7.898-3.736-7.898-8.361c0-4.354,3.051-7.17,7.778-7.17h9.467v4.308h-9.964c-1.771,0-2.75,0.949-2.75,2.673
			c0,1.839,2.4,2.966,5.172,4.269c3.655,1.724,8.207,3.871,8.207,8.726C76.537,85.184,73.531,88.092,68.687,88.092L68.687,88.092z"
			/>
		<path fill="#646469" d="M100.977,60.516h-5.369v17.895c0,3.711-2.053,5.739-5.902,5.739c-3.848,0-5.859-2.028-5.859-5.739V60.516
			h-4.635V78.8c0,5.317,3.897,9.46,10.637,9.46c6.594,0,10.639-4.142,10.639-9.46V64.675"/>
		<path fill="#646469" d="M100.882,87.146c0,0,1.037,0.776,5.765,0.756c9.853-0.045,14.063-5.811,14.063-13.957
			c0-7.971-5.831-13.428-12.144-13.428H95.607l2.387,4.292h8.734c6.949,0,9.117,5.567,9.117,9.3c0,4.074-1.964,9.729-8.791,9.729
			c-1.68,0-4.277-0.455-4.277-0.455L100.882,87.146z"/>
	</g>
	<line display="inline" fill="none" stroke="#62C624" stroke-width="1.5912" x1="3.293" y1="101.875" x2="161.468" y2="101.875"/>
</g>
<g>
	<defs>
		<rect id="SVGID_1_" x="1.063" y="1.927" width="162.937" height="144.529"/>
	</defs>
	<clipPath id="SVGID_2_">
		<use xlink:href="#SVGID_1_"  overflow="visible"/>
	</clipPath>
	<path clip-path="url(#SVGID_2_)" fill="#7DC049" d="M7.576,124.433c-1.238,0-2.311-0.452-3.13-1.272
		c-1.172-1.172-1.155-2.496-1.155-4.786c0-2.295-0.017-3.616,1.155-4.789c0.819-0.819,1.892-1.271,3.13-1.271
		c2.192,0,3.833,1.289,4.251,3.666H9.986c-0.286-1.205-1.088-2.042-2.41-2.042c-0.703,0-1.339,0.267-1.758,0.721
		c-0.585,0.635-0.719,1.321-0.719,3.716c0,2.394,0.134,3.079,0.719,3.714c0.419,0.452,1.055,0.72,1.758,0.72
		c1.322,0,2.142-0.836,2.427-2.04h1.824C11.426,123.144,9.734,124.433,7.576,124.433"/>
	<path clip-path="url(#SVGID_2_)" fill="#7DC049" d="M19.21,123.428c-0.553,0.569-1.39,1.004-2.544,1.004
		c-1.156,0-1.975-0.435-2.528-1.004c-0.804-0.837-1.004-1.908-1.004-3.348c0-1.422,0.2-2.493,1.004-3.33
		c0.553-0.57,1.372-1.005,2.528-1.005c1.154,0,1.991,0.435,2.544,1.005c0.804,0.837,1.004,1.908,1.004,3.33
		C20.214,121.52,20.014,122.591,19.21,123.428 M17.921,117.753c-0.318-0.317-0.753-0.484-1.255-0.484
		c-0.502,0-0.921,0.167-1.239,0.484c-0.519,0.52-0.586,1.407-0.586,2.327c0,0.921,0.067,1.809,0.586,2.327
		c0.318,0.317,0.736,0.501,1.239,0.501c0.502,0,0.937-0.184,1.255-0.501c0.519-0.519,0.586-1.406,0.586-2.327
		C18.507,119.16,18.44,118.272,17.921,117.753"/>
	<path clip-path="url(#SVGID_2_)" fill="#7DC049" d="M32.368,124.33v-5.171c0-1.32-0.752-1.891-1.708-1.891
		c-0.919,0-1.756,0.585-1.756,1.808v5.254h-1.708v-5.171c0-1.32-0.753-1.891-1.708-1.891c-0.954,0-1.757,0.585-1.757,1.891v5.171
		h-1.708v-8.485h1.674v0.854c0.569-0.62,1.407-0.954,2.26-0.954c1.054,0,1.874,0.418,2.41,1.239
		c0.686-0.838,1.541-1.239,2.661-1.239c0.87,0,1.642,0.285,2.143,0.771c0.652,0.636,0.904,1.439,0.904,2.393v5.422H32.368z"/>
	<path clip-path="url(#SVGID_2_)" fill="#7DC049" d="M42.197,123.679c-0.469,0.469-1.206,0.754-2.059,0.754
		c-0.905,0-1.607-0.235-2.227-0.972v4.302h-1.708v-11.918h1.674v0.905c0.637-0.771,1.322-1.005,2.244-1.005
		c0.854,0,1.606,0.284,2.075,0.753c0.854,0.854,0.954,2.293,0.954,3.582C43.15,121.368,43.05,122.825,42.197,123.679
		 M39.686,117.268c-1.54,0-1.774,1.305-1.774,2.812c0,1.507,0.234,2.828,1.774,2.828c1.54,0,1.757-1.321,1.757-2.828
		C41.443,118.572,41.226,117.268,39.686,117.268"/>
	<path clip-path="url(#SVGID_2_)" fill="#7DC049" d="M49.63,117.838c-0.385-0.387-0.686-0.57-1.272-0.57
		c-0.92,0-1.69,0.736-1.69,1.908v5.155H44.96v-8.486h1.673v0.921c0.436-0.603,1.306-1.021,2.261-1.021
		c0.82,0,1.439,0.219,2.024,0.805L49.63,117.838z"/>
	<path clip-path="url(#SVGID_2_)" fill="#7DC049" d="M52.544,120.581c0,1.457,0.77,2.377,2.159,2.377
		c0.953,0,1.456-0.267,2.059-0.87l1.088,1.021c-0.871,0.871-1.69,1.322-3.18,1.322c-2.125,0-3.817-1.121-3.817-4.352
		c0-2.745,1.423-4.335,3.599-4.335c2.276,0,3.599,1.673,3.599,4.085v0.751H52.544z M56.125,118.239
		c-0.268-0.637-0.87-1.072-1.673-1.072s-1.423,0.436-1.691,1.072c-0.167,0.385-0.202,0.636-0.217,1.154h3.816
		C56.343,118.875,56.293,118.624,56.125,118.239"/>
	<path clip-path="url(#SVGID_2_)" fill="#7DC049" d="M64.981,124.33v-5.171c0-1.32-0.753-1.891-1.708-1.891
		s-1.757,0.585-1.757,1.891v5.171h-1.708v-8.485h1.674v0.854c0.586-0.636,1.407-0.954,2.26-0.954c0.871,0,1.591,0.285,2.092,0.771
		c0.652,0.636,0.854,1.439,0.854,2.393v5.422H64.981z"/>
	<path clip-path="url(#SVGID_2_)" fill="#7DC049" d="M73.687,124.33v-0.902c-0.636,0.77-1.323,1.005-2.243,1.005
		c-0.853,0-1.607-0.285-2.076-0.754c-0.853-0.854-0.954-2.311-0.954-3.599c0-1.289,0.101-2.728,0.954-3.582
		c0.468-0.469,1.206-0.753,2.059-0.753c0.904,0,1.607,0.218,2.227,0.954v-4.284h1.707v11.915H73.687z M71.896,117.268
		c-1.54,0-1.775,1.305-1.775,2.812c0,1.507,0.235,2.828,1.775,2.828c1.539,0,1.757-1.321,1.757-2.828
		C73.654,118.572,73.436,117.268,71.896,117.268"/>
	<path clip-path="url(#SVGID_2_)" fill="#7DC049" d="M82.242,117.838c-0.385-0.387-0.686-0.57-1.272-0.57
		c-0.92,0-1.692,0.736-1.692,1.908v5.155h-1.707v-8.486h1.674v0.921c0.436-0.603,1.307-1.021,2.26-1.021
		c0.82,0,1.439,0.219,2.025,0.805L82.242,117.838z"/>
	<path clip-path="url(#SVGID_2_)" fill="#7DC049" d="M85.155,120.581c0,1.457,0.771,2.377,2.16,2.377
		c0.953,0,1.456-0.267,2.059-0.87l1.087,1.021c-0.869,0.871-1.689,1.322-3.18,1.322c-2.126,0-3.816-1.121-3.816-4.352
		c0-2.745,1.424-4.335,3.599-4.335c2.276,0,3.6,1.673,3.6,4.085v0.751H85.155z M88.737,118.239
		c-0.268-0.637-0.871-1.072-1.674-1.072c-0.804,0-1.422,0.436-1.691,1.072c-0.166,0.385-0.2,0.636-0.217,1.154h3.817
		C88.955,118.875,88.904,118.624,88.737,118.239"/>
	<path clip-path="url(#SVGID_2_)" fill="#7DC049" d="M98.214,124.33c-1.623,0-2.326-1.086-2.326-2.343v-9.572h1.705v9.474
		c0,0.651,0.235,0.987,0.923,0.987h0.752v1.454H98.214z"/>
	<path clip-path="url(#SVGID_2_)" fill="#7DC049" d="M101.479,120.581c0,1.457,0.771,2.377,2.159,2.377
		c0.953,0,1.457-0.267,2.06-0.87l1.087,1.021c-0.869,0.871-1.689,1.322-3.181,1.322c-2.125,0-3.814-1.121-3.814-4.352
		c0-2.745,1.421-4.335,3.598-4.335c2.276,0,3.601,1.673,3.601,4.085v0.751H101.479z M105.062,118.239
		c-0.27-0.637-0.871-1.072-1.675-1.072c-0.803,0-1.423,0.436-1.689,1.072c-0.169,0.385-0.202,0.636-0.219,1.154h3.815
		C105.278,118.875,105.229,118.624,105.062,118.239"/>
	<path clip-path="url(#SVGID_2_)" fill="#7DC049" d="M122.604,124.33v-5.171c0-1.32-0.752-1.891-1.707-1.891
		c-0.92,0-1.758,0.585-1.758,1.808v5.254h-1.707v-5.171c0-1.32-0.754-1.891-1.706-1.891c-0.955,0-1.759,0.585-1.759,1.891v5.171
		h-1.707v-8.485h1.675v0.854c0.568-0.62,1.403-0.954,2.258-0.954c1.055,0,1.875,0.418,2.412,1.239
		c0.686-0.838,1.54-1.239,2.66-1.239c0.871,0,1.641,0.285,2.144,0.771c0.652,0.636,0.903,1.439,0.903,2.393v5.422H122.604z"/>
	<path clip-path="url(#SVGID_2_)" fill="#7DC049" d="M132.115,123.428c-0.553,0.569-1.389,1.004-2.544,1.004
		c-1.156,0-1.975-0.435-2.527-1.004c-0.804-0.837-1.006-1.908-1.006-3.348c0-1.422,0.202-2.493,1.006-3.33
		c0.553-0.57,1.371-1.005,2.527-1.005c1.155,0,1.991,0.435,2.544,1.005c0.804,0.837,1.004,1.908,1.004,3.33
		C133.119,121.52,132.919,122.591,132.115,123.428 M130.826,117.753c-0.317-0.317-0.753-0.484-1.255-0.484s-0.922,0.167-1.239,0.484
		c-0.519,0.52-0.586,1.407-0.586,2.327c0,0.921,0.067,1.809,0.586,2.327c0.317,0.317,0.737,0.501,1.239,0.501
		s0.938-0.184,1.255-0.501c0.52-0.519,0.586-1.406,0.586-2.327C131.412,119.16,131.346,118.272,130.826,117.753"/>
	<path clip-path="url(#SVGID_2_)" fill="#7DC049" d="M140.102,124.33v-5.171c0-1.32-0.754-1.891-1.709-1.891
		c-0.953,0-1.758,0.585-1.758,1.891v5.171h-1.706v-8.485h1.675v0.854c0.586-0.636,1.406-0.954,2.259-0.954
		c0.87,0,1.591,0.285,2.092,0.771c0.653,0.636,0.854,1.439,0.854,2.393v5.422H140.102z"/>
	<path clip-path="url(#SVGID_2_)" fill="#7DC049" d="M148.808,124.33v-0.902c-0.637,0.77-1.323,1.005-2.244,1.005
		c-0.854,0-1.606-0.285-2.075-0.754c-0.854-0.854-0.954-2.311-0.954-3.599c0-1.289,0.1-2.728,0.954-3.582
		c0.469-0.469,1.206-0.753,2.059-0.753c0.904,0,1.606,0.218,2.227,0.954v-4.284h1.708v11.915H148.808z M147.016,117.268
		c-1.54,0-1.774,1.305-1.774,2.812c0,1.507,0.234,2.828,1.774,2.828c1.541,0,1.758-1.321,1.758-2.828
		C148.773,118.572,148.557,117.268,147.016,117.268"/>
	<path clip-path="url(#SVGID_2_)" fill="#7DC049" d="M153.948,120.581c0,1.457,0.77,2.377,2.158,2.377
		c0.953,0,1.456-0.267,2.06-0.87l1.087,1.021c-0.87,0.871-1.69,1.322-3.179,1.322c-2.126,0-3.818-1.121-3.818-4.352
		c0-2.745,1.423-4.335,3.6-4.335c2.275,0,3.601,1.673,3.601,4.085v0.751H153.948z M157.53,118.239
		c-0.269-0.637-0.87-1.072-1.675-1.072c-0.803,0-1.422,0.436-1.69,1.072c-0.169,0.385-0.201,0.636-0.217,1.154h3.814
		C157.747,118.875,157.696,118.624,157.53,118.239"/>
	<polygon clip-path="url(#SVGID_2_)" fill="#7DC049" points="161.329,126.742 161.329,122.858 162.804,122.858 162.804,125.42 	"/>
	<path clip-path="url(#SVGID_2_)" fill="#7DC049" d="M7.408,142.641c-1.908,0-3.784-1.171-3.784-4.352
		c0-3.18,1.875-4.336,3.784-4.336c1.171,0,1.992,0.336,2.795,1.189l-1.172,1.14c-0.535-0.588-0.954-0.805-1.623-0.805
		c-0.652,0-1.206,0.268-1.573,0.753c-0.368,0.469-0.503,1.07-0.503,2.059c0,0.986,0.135,1.607,0.503,2.077
		c0.368,0.484,0.921,0.752,1.573,0.752c0.669,0,1.088-0.217,1.623-0.804l1.172,1.122C9.4,142.29,8.579,142.641,7.408,142.641"/>
	<path clip-path="url(#SVGID_2_)" fill="#7DC049" d="M18.423,141.638c-0.553,0.568-1.391,1.003-2.544,1.003
		c-1.156,0-1.976-0.435-2.528-1.003c-0.803-0.837-1.005-1.909-1.005-3.349c0-1.422,0.202-2.493,1.005-3.33
		c0.552-0.57,1.372-1.006,2.528-1.006c1.153,0,1.991,0.436,2.544,1.006c0.804,0.837,1.003,1.908,1.003,3.33
		C19.426,139.729,19.227,140.801,18.423,141.638 M17.133,135.963c-0.317-0.319-0.752-0.485-1.254-0.485
		c-0.503,0-0.921,0.166-1.239,0.485c-0.519,0.519-0.586,1.406-0.586,2.326c0,0.922,0.067,1.809,0.586,2.328
		c0.318,0.316,0.736,0.501,1.239,0.501c0.501,0,0.937-0.185,1.254-0.501c0.52-0.52,0.587-1.406,0.587-2.328
		C17.72,137.369,17.652,136.481,17.133,135.963"/>
	<path clip-path="url(#SVGID_2_)" fill="#7DC049" d="M27.78,142.541v-5.173c0-1.32-0.753-1.891-1.708-1.891
		c-0.954,0-1.757,0.585-1.757,1.891v5.173h-1.708v-8.485h1.674v0.853c0.586-0.635,1.407-0.955,2.26-0.955
		c0.87,0,1.59,0.285,2.091,0.772c0.653,0.634,0.854,1.438,0.854,2.393v5.423H27.78z"/>
	<path clip-path="url(#SVGID_2_)" fill="#7DC049" d="M35.733,142.641c-1.389,0-2.561-0.233-3.565-1.222l1.122-1.121
		c0.686,0.703,1.607,0.888,2.444,0.888c1.038,0,1.857-0.368,1.857-1.172c0-0.569-0.317-0.938-1.138-1.004l-1.355-0.117
		c-1.59-0.134-2.511-0.854-2.511-2.344c0-1.657,1.423-2.596,3.197-2.596c1.272,0,2.36,0.269,3.147,0.955l-1.071,1.088
		c-0.536-0.451-1.289-0.619-2.093-0.619c-1.02,0-1.54,0.451-1.54,1.088c0,0.502,0.269,0.888,1.172,0.972l1.339,0.116
		c1.59,0.135,2.527,0.887,2.527,2.394C39.265,141.721,37.759,142.641,35.733,142.641"/>
	<path clip-path="url(#SVGID_2_)" fill="#7DC049" d="M44.572,142.541c-1.59,0-2.326-1.139-2.326-2.36v-4.669h-0.971v-1.307h0.971
		v-2.578h1.707v2.578h1.641v1.307h-1.641v4.586c0,0.619,0.301,0.987,0.938,0.987h0.703v1.456H44.572z"/>
	<path clip-path="url(#SVGID_2_)" fill="#7DC049" d="M53.311,136.048c-0.385-0.387-0.687-0.57-1.272-0.57
		c-0.92,0-1.69,0.736-1.69,1.908v5.154h-1.708v-8.484h1.674v0.92c0.435-0.604,1.306-1.022,2.26-1.022c0.82,0,1.439,0.22,2.026,0.806
		L53.311,136.048z"/>
	<path clip-path="url(#SVGID_2_)" fill="#7DC049" d="M61.983,142.541v-0.853c-0.585,0.635-1.406,0.953-2.259,0.953
		c-0.871,0-1.59-0.285-2.093-0.77c-0.653-0.636-0.853-1.441-0.853-2.395v-5.422h1.706v5.172c0,1.321,0.753,1.891,1.708,1.891
		c0.954,0,1.757-0.587,1.757-1.891v-5.172h1.708v8.485H61.983z"/>
	<path clip-path="url(#SVGID_2_)" fill="#7DC049" d="M67.19,130.573h1.808v1.809H67.19V130.573z M67.241,134.055h1.708v8.485h-1.708
		V134.055z"/>
	<path clip-path="url(#SVGID_2_)" fill="#7DC049" d="M77.201,136.048c-0.384-0.387-0.686-0.57-1.271-0.57
		c-0.921,0-1.691,0.736-1.691,1.908v5.154h-1.707v-8.484h1.673v0.92c0.435-0.604,1.306-1.022,2.259-1.022
		c0.82,0,1.44,0.22,2.026,0.806L77.201,136.048z"/>
	<path clip-path="url(#SVGID_2_)" fill="#7DC049" d="M81.488,138.791c0,1.456,0.77,2.378,2.159,2.378
		c0.953,0,1.458-0.268,2.06-0.871l1.088,1.022c-0.871,0.869-1.689,1.32-3.181,1.32c-2.125,0-3.817-1.122-3.817-4.352
		c0-2.744,1.424-4.336,3.601-4.336c2.275,0,3.599,1.675,3.599,4.085v0.753H81.488z M85.069,136.448
		c-0.268-0.636-0.871-1.071-1.673-1.071c-0.805,0-1.423,0.436-1.691,1.071c-0.167,0.386-0.201,0.637-0.217,1.154h3.817
		C85.287,137.085,85.238,136.834,85.069,136.448"/>
	<path clip-path="url(#SVGID_2_)" fill="#7DC049" d="M97.291,142.541c-1.624,0-2.326-1.087-2.326-2.344v-9.573h1.706v9.474
		c0,0.653,0.234,0.987,0.922,0.987h0.753v1.456H97.291z"/>
	<polygon clip-path="url(#SVGID_2_)" fill="#7DC049" points="100.036,133.905 100.036,130.623 101.912,130.623 101.912,132.382 	"/>
	<path clip-path="url(#SVGID_2_)" fill="#7DC049" d="M110.014,142.54v-0.769c-0.619,0.618-1.205,0.869-2.26,0.869
		s-1.758-0.251-2.277-0.769c-0.434-0.453-0.669-1.105-0.669-1.823c0-1.425,0.988-2.446,2.929-2.446h2.244v-0.602
		c0-1.071-0.536-1.591-1.857-1.591c-0.938,0-1.391,0.219-1.858,0.82l-1.124-1.055c0.805-0.937,1.643-1.223,3.048-1.223
		c2.326,0,3.5,0.988,3.5,2.914v5.673H110.014z M109.98,138.791h-1.991c-1.005,0-1.524,0.453-1.524,1.223s0.485,1.205,1.557,1.205
		c0.652,0,1.139-0.05,1.59-0.484c0.251-0.252,0.369-0.653,0.369-1.257V138.791z"/>
	<polygon clip-path="url(#SVGID_2_)" fill="#7DC049" points="118.468,142.541 117.079,142.541 113.964,134.056 115.773,134.056 
		117.782,140.031 119.774,134.056 121.581,134.056 	"/>
	<path clip-path="url(#SVGID_2_)" fill="#7DC049" d="M125.03,138.791c0,1.456,0.771,2.378,2.16,2.378
		c0.953,0,1.456-0.268,2.058-0.871l1.088,1.022c-0.871,0.869-1.689,1.32-3.181,1.32c-2.125,0-3.815-1.122-3.815-4.352
		c0-2.744,1.424-4.336,3.598-4.336c2.278,0,3.601,1.675,3.601,4.085v0.753H125.03z M128.612,136.448
		c-0.268-0.636-0.869-1.071-1.675-1.071c-0.801,0-1.422,0.436-1.689,1.071c-0.168,0.386-0.201,0.637-0.218,1.154h3.817
		C128.83,137.085,128.78,136.834,128.612,136.448"/>
	<path clip-path="url(#SVGID_2_)" fill="#7DC049" d="M138.84,142.541v-5.173c0-1.32-0.751-1.891-1.705-1.891
		s-1.759,0.585-1.759,1.891v5.173h-1.707v-8.485h1.673v0.853c0.587-0.635,1.408-0.955,2.262-0.955c0.871,0,1.589,0.285,2.091,0.772
		c0.654,0.634,0.854,1.438,0.854,2.393v5.423H138.84z"/>
	<path clip-path="url(#SVGID_2_)" fill="#7DC049" d="M143.997,130.573h1.808v1.809h-1.808V130.573z M144.049,134.055h1.707v8.485
		h-1.707V134.055z"/>
	<path clip-path="url(#SVGID_2_)" fill="#7DC049" d="M154.009,136.048c-0.384-0.387-0.685-0.57-1.271-0.57
		c-0.921,0-1.689,0.736-1.689,1.908v5.154h-1.708v-8.484h1.674v0.92c0.435-0.604,1.306-1.022,2.26-1.022
		c0.82,0,1.44,0.22,2.025,0.806L154.009,136.048z"/>
	<path clip-path="url(#SVGID_2_)" fill="#7DC049" d="M160.366,138.092c-1.932,0-3.496-1.565-3.496-3.495
		c0-1.933,1.564-3.498,3.496-3.498c1.933,0,3.496,1.565,3.496,3.498C163.862,136.526,162.299,138.092,160.366,138.092
		 M160.366,131.746c-1.563,0-2.802,1.256-2.802,2.851c0,1.592,1.238,2.848,2.802,2.848c1.565,0,2.792-1.256,2.792-2.848
		C163.158,133.002,161.932,131.746,160.366,131.746 M161.102,136.479l-0.773-1.498h-0.482v1.498h-0.696v-3.778h1.42
		c0.715,0,1.217,0.532,1.217,1.16c0,0.532-0.329,0.879-0.744,1.023l0.841,1.595H161.102z M160.48,133.291h-0.635v1.14h0.635
		c0.368,0,0.621-0.25,0.621-0.569C161.102,133.543,160.849,133.291,160.48,133.291"/>
	<path clip-path="url(#SVGID_2_)" fill="#7DC049" d="M48.002,5.412H28.557C17.319,5.412,9.307,9.223,10.15,19
		c1.508,17.479,32.846,12.838,38.109,34.939C52.117,34.471,33.47,32.713,24.47,25.795c-3.521-2.708-4.21-10.333,3.021-10.333h15.19
		L48.002,5.412z"/>
	<path clip-path="url(#SVGID_2_)" fill="#00567F" d="M3.536,19.036c0,19.294,15.316,23.32,24.419,28.714
		c3.821,2.268,4.209,10.333-3.024,10.333H3.73v29.573l10.552-4.539V68.136h9.587c11.239,0,18.405-3.777,18.405-13.592
		C42.274,34.294,7.864,39.379,3.536,19.036"/>
	<path clip-path="url(#SVGID_2_)" fill="#807F83" d="M80.689,16.109l-4.978-8.796c-0.801-1.392-1.246-2.063-2.533-2.063
		c-1.254,0-1.977,0.124-1.977,0.124v13.861h2.356V8.255l5.525,9.717c0.626,1.073,1.122,1.377,2.214,1.377
		c1.075,0,1.749-0.082,1.749-0.082V5.366h-2.357V16.109z"/>
	<path clip-path="url(#SVGID_2_)" fill="#807F83" d="M95.592,16.514L91.176,5.438L91.15,5.366h-2.466L93.6,17.799
		c0.484,1.203,1.045,1.691,2.013,1.671c0.919-0.02,1.328-0.02,1.328-0.02l5.374-14.085h-2.441L95.592,16.514z"/>
	<polygon clip-path="url(#SVGID_2_)" fill="#807F83" points="162.361,1.927 159.9,1.927 157.849,4.695 159.397,4.695 	"/>
	<path clip-path="url(#SVGID_2_)" fill="#807F83" d="M66.507,14.456c0,1.86-1.029,2.878-2.956,2.878
		c-1.936,0-2.939-1.019-2.939-2.878V5.438h-2.325v9.217c0,2.663,1.955,4.739,5.332,4.739c3.31,0,5.336-2.076,5.336-4.739V5.438
		h-2.448V14.456z"/>
	<rect x="85.348" y="5.474" clip-path="url(#SVGID_2_)" fill="#807F83" width="2.565" height="13.689"/>
	<polygon clip-path="url(#SVGID_2_)" fill="#807F83" points="141.594,7.457 145.328,7.457 145.328,19.163 147.894,19.163 
		147.894,7.457 151.624,7.457 151.624,5.475 141.594,5.475 	"/>
	<rect x="137.732" y="5.474" clip-path="url(#SVGID_2_)" fill="#807F83" width="2.566" height="13.689"/>
	<path clip-path="url(#SVGID_2_)" fill="#807F83" d="M131.802,11.048c-1.393-0.652-2.595-1.219-2.595-2.141
		c0-0.864,0.492-1.337,1.38-1.337h4.735V5.407h-4.487c-2.367,0-3.9,1.41-3.9,3.597c0,2.318,2.107,3.315,3.963,4.191
		c1.469,0.695,2.745,1.297,2.745,2.381c0,0.774-0.242,1.49-1.988,1.49h-4.813v2.163h5.136c2.427,0,3.939-1.46,3.939-3.806
		C135.916,12.987,133.634,11.913,131.802,11.048"/>
	<path clip-path="url(#SVGID_2_)" fill="#807F83" d="M125.321,9.75c0-5.032-4.91-4.375-9.819-4.352h-0.954V19.18h2.291V7.487
		c4.811-0.31,6.204,0.388,6.204,2.263c0,1.731-1.477,2.367-4.104,2.367h-0.445l-0.682,2.013l4.883,5.109h2.915l-4.997-5.198
		C124.436,13.612,125.321,12.036,125.321,9.75"/>
	<polygon clip-path="url(#SVGID_2_)" fill="#807F83" points="103.742,19.163 112.305,19.126 112.305,17.145 106.31,17.145 
		106.31,13.175 111.382,13.175 112.14,11.194 106.31,11.194 106.31,7.457 112.305,7.457 112.305,5.474 103.742,5.474 	"/>
	<polygon clip-path="url(#SVGID_2_)" fill="#807F83" points="153.211,19.163 161.771,19.126 161.771,17.145 155.778,17.145 
		155.778,13.175 160.851,13.175 161.609,11.194 155.778,11.194 155.778,7.457 161.771,7.457 161.771,5.474 153.211,5.474 	"/>
	<path clip-path="url(#SVGID_2_)" fill="#807F83" d="M129.052,35.802c0-10.045-9.806-8.739-19.616-8.687h-1.907v27.525h4.581V31.285
		c9.605-0.62,12.394,0.773,12.394,4.518c0,3.459-2.951,4.729-8.197,4.729h-0.893l-1.361,4.021l9.754,10.201h5.82l-9.981-10.384
		C127.283,43.518,129.052,40.373,129.052,35.802"/>
	<path clip-path="url(#SVGID_2_)" fill="#807F83" d="M66.304,44.553c10.236,0.837,13.566-3.857,13.566-8.751
		c0-10.046-9.805-8.739-19.617-8.688h-1.906v27.526h4.582V31.285c9.604-0.619,12.392,0.773,12.392,4.518
		c0,3.459-2.852,5.027-8.196,4.73h-0.891l-1.279,3.832L66.304,44.553z"/>
	<rect x="133.914" y="26.853" clip-path="url(#SVGID_2_)" fill="#807F83" width="5.133" height="27.901"/>
	<path clip-path="url(#SVGID_2_)" fill="#807F83" d="M101.664,54.754h5.055L93.886,26.879h-5.511L77.006,54.8l4.999-0.045
		l3.695-9.34H97.52L101.664,54.754z M87.247,41.51l4.021-10.164l4.513,10.164H87.247z"/>
	<path clip-path="url(#SVGID_2_)" fill="#807F83" d="M154.539,54.641h-10.271v-4.313h9.626c3.489,0,3.974-1.436,3.974-2.984
		c0-2.165-2.545-3.369-5.491-4.762c-3.715-1.754-7.919-3.746-7.919-8.381c0-4.37,3.059-7.188,7.797-7.188h9.488v4.318h-9.982
		c-1.777,0-2.761,0.951-2.761,2.68c0,1.84,2.404,2.971,5.185,4.283c3.665,1.721,8.23,3.872,8.23,8.745
		C162.414,51.728,159.396,54.641,154.539,54.641"/>
	<path clip-path="url(#SVGID_2_)" fill="#807F83" d="M68.805,88.306H58.53v-4.318h9.623c3.495,0,3.976-1.438,3.976-2.988
		c0-2.162-2.545-3.363-5.491-4.76c-3.711-1.754-7.918-3.744-7.918-8.38c0-4.365,3.059-7.189,7.796-7.189h9.491v4.319h-9.989
		c-1.776,0-2.758,0.95-2.758,2.679c0,1.845,2.406,2.973,5.186,4.28c3.664,1.729,8.227,3.88,8.227,8.748
		C76.673,85.39,73.66,88.306,68.805,88.306"/>
	<path clip-path="url(#SVGID_2_)" fill="#807F83" d="M101.174,60.661h-5.383V78.6c0,3.722-2.058,5.754-5.916,5.754
		c-3.856,0-5.873-2.032-5.873-5.754V60.661h-4.646v18.33c0,5.33,3.906,9.483,10.663,9.483c6.611,0,10.666-4.153,10.666-9.483V64.83"
		/>
	<path clip-path="url(#SVGID_2_)" fill="#807F83" d="M101.079,87.356c0,0,1.04,0.778,5.78,0.758
		c9.876-0.044,14.098-5.823,14.098-13.991c0-7.991-5.846-13.462-12.174-13.462H95.792l2.393,4.303h8.757
		c6.967,0,9.139,5.581,9.139,9.323c0,4.083-1.968,9.755-8.812,9.755c-1.684,0-4.288-0.457-4.288-0.457L101.079,87.356z"/>
	
		<line clip-path="url(#SVGID_2_)" fill="none" stroke="#807F83" stroke-width="1.974" x1="3.249" y1="102.122" x2="161.815" y2="102.122"/>
	<path clip-path="url(#SVGID_2_)" fill="#7DC049" d="M48.002,249.421H28.557c-11.238,0-19.25,3.809-18.407,13.588
		c1.508,17.479,32.846,12.838,38.109,34.938c3.858-19.468-14.789-21.226-23.789-28.143c-3.521-2.709-4.21-10.335,3.021-10.335h15.19
		L48.002,249.421z"/>
	<path clip-path="url(#SVGID_2_)" fill="#00567F" d="M3.536,263.044c0,19.296,15.316,23.32,24.419,28.715
		c3.821,2.267,4.209,10.333-3.024,10.333H3.73v29.574l10.552-4.541v-14.979h9.587c11.239,0,18.405-3.778,18.405-13.593
		C42.274,278.303,7.864,283.388,3.536,263.044"/>
	<path clip-path="url(#SVGID_2_)" fill="#807F83" d="M80.689,260.119l-4.978-8.796c-0.801-1.394-1.246-2.063-2.533-2.063
		c-1.254,0-1.977,0.122-1.977,0.122v13.862h2.356v-10.979l5.525,9.717c0.626,1.072,1.122,1.377,2.214,1.377
		c1.075,0,1.749-0.084,1.749-0.084v-13.9h-2.357V260.119z"/>
	<path clip-path="url(#SVGID_2_)" fill="#807F83" d="M95.592,260.523l-4.416-11.076l-0.025-0.071h-2.466L93.6,261.81
		c0.484,1.201,1.045,1.689,2.013,1.67c0.919-0.021,1.328-0.021,1.328-0.021l5.374-14.083h-2.441L95.592,260.523z"/>
	<polygon clip-path="url(#SVGID_2_)" fill="#807F83" points="162.361,245.935 159.9,245.935 157.849,248.703 159.397,248.703 	"/>
	<path clip-path="url(#SVGID_2_)" fill="#807F83" d="M66.507,258.465c0,1.858-1.029,2.877-2.956,2.877
		c-1.936,0-2.939-1.019-2.939-2.877v-9.018h-2.325v9.215c0,2.665,1.955,4.74,5.332,4.74c3.31,0,5.336-2.075,5.336-4.74v-9.215
		h-2.448V258.465z"/>
	<rect x="85.348" y="249.482" clip-path="url(#SVGID_2_)" fill="#807F83" width="2.565" height="13.689"/>
	<polygon clip-path="url(#SVGID_2_)" fill="#807F83" points="141.594,251.465 145.328,251.465 145.328,263.173 147.894,263.173 
		147.894,251.465 151.624,251.465 151.624,249.482 141.594,249.482 	"/>
	<rect x="137.732" y="249.482" clip-path="url(#SVGID_2_)" fill="#807F83" width="2.566" height="13.689"/>
	<path clip-path="url(#SVGID_2_)" fill="#807F83" d="M131.802,255.058c-1.393-0.653-2.595-1.22-2.595-2.143
		c0-0.864,0.492-1.337,1.38-1.337h4.735v-2.162h-4.487c-2.367,0-3.9,1.409-3.9,3.597c0,2.316,2.107,3.314,3.963,4.192
		c1.469,0.694,2.745,1.296,2.745,2.381c0,0.774-0.242,1.491-1.988,1.491h-4.813v2.161h5.136c2.427,0,3.939-1.459,3.939-3.806
		C135.916,256.995,133.634,255.922,131.802,255.058"/>
	<path clip-path="url(#SVGID_2_)" fill="#807F83" d="M125.321,253.758c0-5.031-4.91-4.376-9.819-4.352h-0.954v13.783h2.291v-11.693
		c4.811-0.31,6.204,0.388,6.204,2.262c0,1.732-1.477,2.368-4.104,2.368h-0.445l-0.682,2.013l4.883,5.107h2.915l-4.997-5.196
		C124.436,257.621,125.321,256.046,125.321,253.758"/>
	<polygon clip-path="url(#SVGID_2_)" fill="#807F83" points="103.742,263.173 112.305,263.136 112.305,261.152 106.31,261.152 
		106.31,257.184 111.382,257.184 112.14,255.203 106.31,255.203 106.31,251.465 112.305,251.465 112.305,249.482 103.742,249.482 	
		"/>
	<polygon clip-path="url(#SVGID_2_)" fill="#807F83" points="153.211,263.173 161.771,263.136 161.771,261.152 155.778,261.152 
		155.778,257.184 160.851,257.184 161.609,255.203 155.778,255.203 155.778,251.465 161.771,251.465 161.771,249.482 
		153.211,249.482 	"/>
	<path clip-path="url(#SVGID_2_)" fill="#807F83" d="M129.052,279.812c0-10.046-9.806-8.742-19.616-8.689h-1.907v27.526h4.581
		v-23.356c9.605-0.62,12.394,0.773,12.394,4.52c0,3.457-2.951,4.728-8.197,4.728h-0.893l-1.361,4.021l9.754,10.202h5.82
		l-9.981-10.386C127.283,287.526,129.052,284.382,129.052,279.812"/>
	<path clip-path="url(#SVGID_2_)" fill="#807F83" d="M66.304,288.562c10.236,0.838,13.566-3.857,13.566-8.749
		c0-10.047-9.805-8.742-19.617-8.689h-1.906v27.526h4.582v-23.356c9.604-0.619,12.392,0.774,12.392,4.52
		c0,3.457-2.852,5.025-8.196,4.729h-0.891l-1.279,3.831L66.304,288.562z"/>
	<rect x="133.914" y="270.863" clip-path="url(#SVGID_2_)" fill="#807F83" width="5.133" height="27.899"/>
	<path clip-path="url(#SVGID_2_)" fill="#807F83" d="M101.664,298.764h5.055l-12.833-27.876h-5.511l-11.369,27.921l4.999-0.045
		l3.695-9.341H97.52L101.664,298.764z M87.247,285.52l4.021-10.164l4.513,10.164H87.247z"/>
	<path clip-path="url(#SVGID_2_)" fill="#807F83" d="M154.539,298.649h-10.271v-4.313h9.626c3.489,0,3.974-1.436,3.974-2.985
		c0-2.164-2.545-3.368-5.491-4.762c-3.715-1.754-7.919-3.745-7.919-8.381c0-4.369,3.059-7.188,7.797-7.188h9.488v4.319h-9.982
		c-1.777,0-2.761,0.949-2.761,2.679c0,1.84,2.404,2.972,5.185,4.283c3.665,1.722,8.23,3.873,8.23,8.745
		C162.414,295.737,159.396,298.649,154.539,298.649"/>
	<path clip-path="url(#SVGID_2_)" fill="#807F83" d="M68.805,332.313H58.53v-4.318h9.623c3.495,0,3.976-1.437,3.976-2.987
		c0-2.163-2.545-3.362-5.491-4.76c-3.711-1.755-7.918-3.745-7.918-8.381c0-4.364,3.059-7.188,7.796-7.188h9.491v4.318h-9.989
		c-1.776,0-2.758,0.951-2.758,2.68c0,1.844,2.406,2.974,5.186,4.279c3.664,1.729,8.227,3.881,8.227,8.748
		C76.673,329.396,73.66,332.313,68.805,332.313"/>
	<path clip-path="url(#SVGID_2_)" fill="#807F83" d="M101.174,304.67h-5.383v17.939c0,3.72-2.058,5.754-5.916,5.754
		c-3.856,0-5.873-2.034-5.873-5.754V304.67h-4.646v18.329c0,5.33,3.906,9.483,10.663,9.483c6.611,0,10.666-4.153,10.666-9.483
		v-14.16"/>
	<path clip-path="url(#SVGID_2_)" fill="#807F83" d="M101.079,331.365c0,0,1.04,0.779,5.78,0.759
		c9.876-0.046,14.098-5.825,14.098-13.992c0-7.993-5.846-13.461-12.174-13.461H95.792l2.393,4.302h8.757
		c6.967,0,9.139,5.58,9.139,9.324c0,4.083-1.968,9.753-8.812,9.753c-1.684,0-4.288-0.457-4.288-0.457L101.079,331.365z"/>
</g>
</svg>
